<?xml version="1.0" encoding="utf-8"?>
<!-- Generator: Adobe Illustrator 26.2.1, SVG Export Plug-In . SVG Version: 6.00 Build 0)  -->
<svg version="1.1" id="Layer_3" xmlns="http://www.w3.org/2000/svg" xmlns:xlink="http://www.w3.org/1999/xlink" x="0px" y="0px"
	 viewBox="0 0 500 320" style="enable-background:new 0 0 500 320;" xml:space="preserve">
<style type="text/css">
	.st0{display:none;}
	.st1{display:inline;fill:#EBEBEB;}
	.st2{display:inline;opacity:0.1;}
	.st3{display:inline;fill:#DBDBDB;}
	.st4{display:inline;fill:#FFFFFF;}
	.st5{display:inline;fill:#A6A6A6;}
	.st6{display:inline;fill:#C7C7C7;}
	.st7{display:inline;fill:#263238;}
	.st8{display:inline;fill:#37474F;}
	.st9{display:inline;fill:#23B5B5;}
	.st10{display:inline;fill:#455A64;}
	.st11{display:inline;fill:#DD6A57;}
	.st12{display:inline;fill:#EB9481;}
	.st13{display:inline;opacity:0.1;enable-background:new    ;}
	.st14{display:inline;opacity:0.1;fill:#020100;enable-background:new    ;}
	.st15{display:inline;fill:#FF98B9;}
	.st16{fill:#97d3d3;}
	.st17{fill:#FFFFFF;stroke:#EBEBEB;stroke-miterlimit:10;}
	.st18{fill:#37474F;}
	.st19{fill:#23B5B5;}
	.st20{fill:none;stroke:#EBEBEB;stroke-miterlimit:10;}
	.st21{fill:#A6A6A6;}
	.st22{fill:#FFFFFF;}
	.st23{fill:#DBDBDB;}
	.st24{fill:#263238;}
	.st25{fill:#EB9481;}
	.st26{opacity:0.1;}
	.st27{fill:#FF99BA;}
	.st28{fill:#C95F50;}
	.st29{fill:#455A64;}
	.st30{fill:#374750;}
	.st31{font-family:'AttenRoundNew-Bold';}
	.st32{font-size:18.385px;}
</style>
<g id="freepik--background-complete--inject-261">
	<path class="st16" d="M467.1,204.9l-9.2,0.2l-4.7,0.1c-1.6,0-3.1,0-4.7,0h-0.3v-0.3l0-7.9v-0.4h0.4l9.3,0c3.1,0,6.2,0.1,9.3,0.1
		h0.2v0.2c0,1.3-0.1,2.7-0.1,4L467.1,204.9z M467.1,204.9l-0.1-4c0-1.3-0.1-2.6-0.1-3.9l0.2,0.2c-3.1,0-6.2,0.1-9.3,0.1l-9.3,0
		l0.4-0.4v7.9l-0.3-0.3c1.5,0,3.1,0,4.6,0l4.6,0.1L467.1,204.9z"/>
	<path class="st16" d="M456.7,214.8l-9.2,0.2l-4.7,0.1c-1.6,0-3.1,0-4.7,0h-0.3v-0.3v-7.9v-0.4h0.4l9.3,0c3.1,0,6.2,0.1,9.3,0.1h0.2
		v0.2c0,1.3-0.1,2.7-0.1,4L456.7,214.8z M456.7,214.8l-0.1-4c0-1.3-0.1-2.6-0.1-3.9l0.2,0.2c-3.1,0-6.2,0.1-9.3,0.1l-9.3,0l0.4-0.4
		v7.9l-0.3-0.3c1.5,0,3.1,0,4.6,0l4.6,0.1L456.7,214.8z"/>
	<path class="st16" d="M477.5,214.8l-9.2,0.2l-4.7,0.1c-1.6,0-3.1,0-4.7,0h-0.3v-0.3l0-7.9v-0.4h0.4l9.3,0c3.1,0,6.2,0.1,9.3,0.1
		h0.2v0.2c0,1.3-0.1,2.7-0.1,4L477.5,214.8z M477.5,214.8l-0.1-4c0-1.3-0.1-2.6-0.1-3.9l0.2,0.2c-3.1,0-6.2,0.1-9.3,0.1l-9.3,0
		l0.4-0.4v7.9l-0.3-0.3c1.5,0,3.1,0,4.6,0l4.6,0.1L477.5,214.8z"/>
	<path class="st16" d="M201.8,111.3l-9.2,0.2l-4.7,0.1c-1.6,0-3.1,0-4.7,0h-0.3v-0.3l0-7.9v-0.4h0.4l9.3,0c3.1,0,6.2,0.1,9.3,0.1
		h0.2v0.2c0,1.3-0.1,2.7-0.1,4L201.8,111.3z M201.8,111.3l-0.1-4c0-1.3-0.1-2.6-0.1-3.9l0.2,0.2c-3.1,0-6.2,0.1-9.3,0.1l-9.3,0
		l0.4-0.4l0,7.9l-0.3-0.3c1.5,0,3.1,0,4.6,0l4.6,0.1L201.8,111.3z"/>
	<path class="st16" d="M191.4,121.2l-9.2,0.2l-4.7,0.1c-1.6,0-3.1,0-4.7,0h-0.3v-0.3l-0.1-7.8V113h0.4l9.3,0c3.1,0,6.2,0.1,9.3,0.1
		h0.2v0.2c0,1.3-0.1,2.7-0.1,4L191.4,121.2z M191.4,121.2l-0.1-4c0-1.3-0.1-2.6-0.1-3.9l0.2,0.2c-3.1,0-6.2,0.1-9.3,0.1l-9.3,0
		l0.4-0.4l0,7.9l-0.3-0.3c1.5,0,3.1,0,4.6,0l4.6,0.1L191.4,121.2z"/>
	<path class="st16" d="M212.2,121.2l-9.2,0.2l-4.7,0.1c-1.6,0-3.1,0-4.7,0h-0.3v-0.3l0-7.8V113h0.4l9.3,0c3.1,0,6.2,0.1,9.3,0.1h0.2
		v0.2c0,1.3-0.1,2.7-0.1,4L212.2,121.2z M212.2,121.2l-0.1-4c0-1.3-0.1-2.6-0.1-3.9l0.2,0.2c-3.1,0-6.2,0.1-9.3,0.1l-9.3,0l0.4-0.4
		l0,7.9l-0.3-0.3c1.5,0,3.1,0,4.6,0l4.6,0.1L212.2,121.2z"/>
	<path class="st16" d="M50.2,163.3l-9.2,0.2l-4.7,0.1c-1.6,0-3.1,0-4.7,0h-0.3v-0.3v-7.9v-0.4h0.4l9.3,0c3.1,0,6.2,0.1,9.3,0.1h0.2
		v0.2c0,1.3-0.1,2.7-0.1,4L50.2,163.3z M50.2,163.3l-0.1-4c0-1.3-0.1-2.6-0.1-3.9l0.2,0.2c-3.1,0-6.2,0.1-9.3,0.1l-9.3,0l0.4-0.4
		l0,7.9l-0.3-0.3c1.5,0,3.1,0,4.6,0l4.6,0.1L50.2,163.3z"/>
	<path class="st16" d="M358.5,111.3l-9.2,0.2l-4.7,0.1c-1.6,0-3.1,0-4.7,0h-0.3v-0.3l0-7.9v-0.4h0.4l9.3,0c3.1,0,6.2,0.1,9.3,0.1
		h0.2v0.2c0,1.3-0.1,2.7-0.1,4L358.5,111.3z M358.5,111.3l-0.1-4c0-1.3-0.1-2.6-0.1-3.9l0.2,0.2c-3.1,0-6.2,0.1-9.3,0.1l-9.3,0
		l0.4-0.4l0,7.9l-0.3-0.3c1.5,0,3.1,0,4.6,0l4.6,0.1L358.5,111.3z"/>
	<path class="st16" d="M466,35l-9.2,0.2l-4.7,0.1c-1.6,0-3.1,0-4.7,0h-0.3V35v-7.9v-0.4h0.4l9.3,0c3.1,0,6.2,0.1,9.3,0.1h0.2v0.2
		c0,1.3-0.1,2.7-0.1,4L466,35z M466,35l-0.1-4c0-1.3-0.1-2.6-0.1-3.9l0.2,0.2c-3.1,0-6.2,0.1-9.3,0.1l-9.3,0l0.4-0.4l0,7.9l-0.3-0.3
		c1.5,0,3.1,0,4.6,0l4.6,0.1L466,35z"/>
	<path class="st16" d="M476.4,44.9l-9.2,0.2l-4.7,0.1c-1.6,0-3.1,0-4.7,0h-0.3v-0.3l0-7.9v-0.4h0.4l9.3,0c3.1,0,6.2,0.1,9.3,0.1h0.2
		V37c0,1.3-0.1,2.7-0.1,4L476.4,44.9z M476.4,44.9l-0.1-4c0-1.3-0.1-2.6-0.1-3.9l0.2,0.2c-3.1,0-6.2,0.1-9.3,0.1l-9.3,0l0.4-0.4v7.9
		l-0.3-0.3c1.5,0,3.1,0,4.6,0l4.6,0.1L476.4,44.9z"/>
	<path class="st16" d="M29.4,35l-9.2,0.2l-4.7,0.1c-1.6,0-3.1,0-4.7,0h-0.3V35v-7.9v-0.4h0.4l9.3,0c3.1,0,6.2,0.1,9.3,0.1h0.2v0.2
		c0,1.3-0.1,2.7-0.1,4L29.4,35z M29.4,35l-0.1-4c0-1.3-0.1-2.6-0.1-3.9l0.2,0.2c-3.1,0-6.2,0.1-9.3,0.1l-9.3,0l0.4-0.4l0,7.9
		l-0.3-0.3c1.5,0,3.1,0,4.6,0l4.6,0.1L29.4,35z"/>
	<rect x="50.8" y="28.5" class="st17" width="83.3" height="56.1"/>
	<path class="st18" d="M58.8,32.8c0,1.1-0.9,1.9-1.9,1.9c-1.1,0-1.9-0.9-1.9-1.9s0.9-1.9,1.9-1.9S58.8,31.7,58.8,32.8L58.8,32.8z"/>
	<path class="st16" d="M66.7,32.8c0,1.1-0.9,1.9-1.9,1.9c-1.1,0-1.9-0.9-1.9-1.9c0-1.1,0.9-1.9,1.9-1.9c0,0,0,0,0,0
		C65.8,30.9,66.7,31.7,66.7,32.8C66.7,32.8,66.7,32.8,66.7,32.8z"/>
	<path class="st19" d="M74.5,32.8c0,1.1-0.9,1.9-1.9,1.9c-1.1,0-1.9-0.9-1.9-1.9s0.9-1.9,1.9-1.9l0,0C73.6,30.9,74.5,31.7,74.5,32.8
		z"/>
	<line class="st20" x1="50.8" y1="37" x2="134.1" y2="37"/>
	<path class="st16" d="M121.2,102.6c0-0.9,0.1-3.2,0.1-4.2c0-4.3-1.5-6.2-5.5-6.3c-1.9-0.1-3-1.2-3-2.8c0-1.6,1.1-2.7,3-2.8
		c4-0.2,5.5-2,5.5-6.4c0-1-0.1-3.3-0.1-4.2c0-5.7,2.4-9.3,11.5-11.3c1.8-0.4,3.2,0.7,3.2,2.4c0,1.1-0.6,2-1.6,2.4
		c-5.7,1.8-6.5,3.6-6.5,7.6c0,1.2,0.1,3.1,0.1,4.3c0,4.6-2.2,6.8-6.1,8c3.9,1.3,6.1,3.4,6.1,8c0,1.2-0.1,3.2-0.1,4.3
		c0,4,0.8,5.8,6.5,7.5c1,0.4,1.7,1.3,1.6,2.4c0,1.7-1.4,2.8-3.2,2.4C123.6,111.9,121.2,108.3,121.2,102.6z"/>
	<path class="st16" d="M155.5,75.8c0,0.9-0.1,3.2-0.1,4.2c0,4.3,1.6,6.2,5.6,6.4c1.8,0.1,2.9,1.2,2.9,2.8c0,1.6-1.1,2.7-2.9,2.8
		c-4,0.1-5.6,2.1-5.6,6.3c0,1,0.1,3.3,0.1,4.2c0,5.7-2.4,9.4-11.5,11.4c-1.8,0.4-3.2-0.7-3.2-2.4c0-1.1,0.7-2.1,1.7-2.4
		c5.6-1.8,6.4-3.6,6.4-7.5c0-1.2-0.1-3.1-0.1-4.3c0-4.6,2.2-6.8,6.1-8c-3.9-1.3-6.1-3.5-6.1-8c0-1.2,0.1-3.2,0.1-4.3
		c0-4-0.8-5.8-6.4-7.6c-1-0.3-1.7-1.3-1.7-2.4c0-1.7,1.4-2.8,3.2-2.4C153.1,66.5,155.5,70.1,155.5,75.8z"/>
	<path class="st16" d="M200,210.1c0.9,0.9,1,2.4,0,3.4c-0.4,0.5-1.1,0.7-1.7,0.7c-0.6,0-1.3-0.3-1.7-0.7L186,202.7
		c-0.1,0-0.1-0.1-0.2-0.2c0,0-0.1-0.1-0.1-0.1c-0.1-0.1-0.1-0.2-0.1-0.3c-0.1,0-0.1-0.1-0.1-0.1c0-0.1,0-0.2-0.1-0.2
		c0,0-0.1-0.1-0.1-0.2v-0.3c0-0.1,0-0.1,0-0.2s0-0.1,0-0.2v-0.3c0-0.1,0.1-0.1,0.1-0.2c0,0,0-0.2,0.1-0.3c0-0.1,0,0,0-0.1
		c0.1-0.1,0.1-0.2,0.2-0.3c0,0,0-0.1,0.1-0.1c0.1-0.1,0.1-0.2,0.2-0.3l10.7-10.8c1-0.9,2.4-0.9,3.4,0c0.9,0.9,0.9,2.5,0,3.4
		c0,0,0,0,0,0l-9,9L200,210.1z"/>
	<path class="st16" d="M209.7,211.3l9.3-22c0.5-1.1,1.7-1.6,2.8-1.1c1,0.4,1.5,1.6,1.1,2.7l-9.3,22.1c-0.3,0.8-1.1,1.2-1.9,1.2
		c-0.3,0-0.5,0-0.8-0.1C209.7,213.6,209.2,212.4,209.7,211.3C209.6,211.3,209.6,211.3,209.7,211.3z"/>
	<path class="st16" d="M241,202.4L241,202.4c-0.1,0.1-0.2,0.2-0.3,0.3l-10.7,10.8c-1,0.9-2.4,0.9-3.4,0c-0.9-0.9-0.9-2.4,0-3.4
		c0,0,0,0,0,0l9-9l-9-9c-0.9-0.9-0.9-2.4,0-3.4c0,0,0,0,0,0c1-0.9,2.4-0.9,3.4,0l10.6,10.8c0.1,0.1,0.2,0.2,0.3,0.3v0.1
		c0.1,0.1,0.1,0.2,0.2,0.3c0,0,0,0,0,0.1c0,0.1,0.1,0.2,0.1,0.3c0,0,0,0,0,0.1v0.3c0,0,0,0.1,0,0.2s0,0.2,0,0.2v0.3c0,0,0,0,0,0.1
		c0,0.1-0.1,0.2-0.1,0.3c0,0,0,0,0,0.1S241.1,202.2,241,202.4z"/>
	<path class="st16" d="M392.7,84.8c0,4.8-3.7,8.7-8.4,9l0,0H333c-5.9-0.2-10.5-5.1-10.3-11c0.2-5.2,4.1-9.5,9.3-10.2
		c0.3-9.9,8.6-17.7,18.5-17.4c7.3,0.2,13.7,4.9,16.3,11.7c5.3-2.6,11.7-0.5,14.3,4.7c0.6,1.3,1,2.7,1.1,4.1c0.5-0.1,1-0.1,1.5-0.1
		C388.7,75.8,392.7,79.8,392.7,84.8z"/>
	<path class="st16" d="M42.9,151.7c0.8-0.5,1.9-0.5,2.8,0c0.2,0.1,0.5,0.3,0.7,0.4c0.2,0.1,0.5,0.3,0.7,0.4c0.9,0.4,1.5,1.3,1.5,2.3
		l0.1,3.4l11-0.3l-0.1-3.4c0-1,0.5-1.9,1.4-2.4c0.5-0.3,1-0.5,1.4-0.9c0.8-0.6,1.9-0.7,2.8-0.2l3,1.6l5.2-9.7l-3-1.6
		c-0.9-0.5-1.4-1.4-1.4-2.4c0-0.5,0-1.1,0-1.6c-0.1-1,0.4-1.9,1.2-2.5l2.9-1.8l-5.8-9.4l-2.9,1.8c-0.8,0.5-1.9,0.5-2.7,0
		c-0.2-0.1-0.5-0.3-0.7-0.4l-0.8-0.4c-0.9-0.4-1.5-1.3-1.5-2.3l-0.1-3.4l-11.1,0.3l0.1,3.4c0,1-0.5,1.9-1.3,2.4
		c-0.5,0.3-1,0.6-1.5,0.9c-0.8,0.6-1.8,0.6-2.7,0.1l-3-1.6l-5.2,9.7l3,1.6c0.9,0.5,1.4,1.4,1.4,2.4c0,0.5,0,1.1,0,1.6
		c0.1,1-0.4,1.9-1.2,2.5l-2.9,1.8l5.8,9.4L42.9,151.7z M45.2,135.3c1.8-4.7,7-7.1,11.7-5.3s7.1,7,5.3,11.7c-1.8,4.7-7,7.1-11.7,5.3
		c-0.7-0.3-1.5-0.7-2.1-1.1C45.1,143.4,43.8,139.1,45.2,135.3z"/>
	<path class="st16" d="M97.8,63.7c0.4-0.6,1-0.9,1.7-0.9h0.6h0.6c0.7,0,1.3,0.3,1.7,0.9l1.2,2.1l6.7-3.9l-1.2-2.1
		c-0.3-0.6-0.3-1.4,0.1-1.9c0.2-0.3,0.4-0.7,0.6-1c0.3-0.6,1-1,1.7-1h2.4v-7.7h-2.4c-0.7,0-1.3-0.4-1.6-1c-0.2-0.3-0.4-0.7-0.6-1
		c-0.4-0.6-0.4-1.3-0.1-1.9l1.2-2.1l-6.7-3.9l-1.2,2.1c-0.4,0.6-1,0.9-1.7,0.9h-0.6h-0.6c-0.7,0-1.4-0.3-1.7-0.9l-1.2-2.1l-6.7,3.9
		l1.2,2.1c0.3,0.6,0.3,1.4-0.1,1.9c-0.2,0.3-0.4,0.7-0.6,1c-0.3,0.6-0.9,1-1.6,1h-2.4v7.7h2.4c0.7,0,1.3,0.4,1.6,1
		c0.2,0.3,0.4,0.7,0.6,1c0.4,0.6,0.4,1.3,0.1,1.9l-1.2,2.1l6.7,3.9L97.8,63.7z M93.7,52c0-3.5,2.8-6.3,6.3-6.3s6.3,2.8,6.3,6.3
		s-2.8,6.3-6.3,6.3l0,0C96.6,58.4,93.7,55.5,93.7,52z"/>
	<path class="st16" d="M454.4,62.2l-3.9-6.7l-2.1,1.2c-0.6,0.3-1.4,0.3-1.9-0.1c-0.3-0.2-0.7-0.4-1-0.6c-0.6-0.3-1-0.9-1-1.6V52
		h-7.7v2.4c0,0.7-0.4,1.3-1,1.6c-0.3,0.2-0.7,0.4-1,0.6c-0.6,0.4-1.3,0.4-1.9,0.1l-2.1-1.2l-3.9,6.7l2.1,1.2c0.6,0.4,0.9,1,0.9,1.7
		c0,0.2,0,0.4,0,0.6c0,0.2,0,0.4,0,0.6c0,0.7-0.3,1.3-0.9,1.7l-2.1,1.2l3.9,6.7l2.1-1.2c0.6-0.3,1.4-0.3,1.9,0.1
		c0.3,0.2,0.7,0.4,1,0.6c0.6,0.3,1,0.9,1,1.6v2.4h7.7v-2.4c0-0.7,0.4-1.3,1-1.6c0.3-0.2,0.7-0.4,1-0.6c0.6-0.4,1.3-0.4,1.9-0.1
		l2.1,1.2l3.9-6.7l-2.1-1.2c-0.6-0.4-0.9-1-0.9-1.7c0-0.2,0-0.4,0-0.6c0-0.2,0-0.4,0-0.6c0-0.7,0.3-1.4,0.9-1.7L454.4,62.2z
		 M447,65.7c0,3.5-2.8,6.3-6.3,6.3s-6.3-2.8-6.3-6.3c0-3.5,2.8-6.3,6.3-6.3C444.1,59.4,447,62.2,447,65.7L447,65.7z"/>
</g>
<g id="freepik--Screens--inject-261">
	<rect x="272.4" y="35.5" class="st18" width="157.2" height="99.2"/>
	<rect x="272.4" y="35.5" class="st19" width="157.2" height="8.7"/>
	<path class="st21" d="M280.7,39.9c0,1.2-1,2.2-2.2,2.2c-1.2,0-2.2-1-2.2-2.2s1-2.2,2.2-2.2S280.7,38.7,280.7,39.9L280.7,39.9z"/>
	<path class="st16" d="M289.6,39.9c0,1.2-1,2.2-2.2,2.2c-1.2,0-2.2-1-2.2-2.2s1-2.2,2.2-2.2S289.6,38.7,289.6,39.9L289.6,39.9z"/>
	<path class="st22" d="M298.6,39.9c0,1.2-1,2.2-2.2,2.2s-2.2-1-2.2-2.2s1-2.2,2.2-2.2C297.6,37.7,298.6,38.7,298.6,39.9L298.6,39.9z
		"/>
	<rect x="281.8" y="61.6" class="st16" width="4.7" height="1.7"/>
	<rect x="289.9" y="61.6" class="st16" width="75.5" height="1.7"/>
	<rect x="368.2" y="61.6" class="st19" width="8.9" height="1.7"/>
	<rect x="382.4" y="84.4" class="st16" width="8.9" height="1.7"/>
	<rect x="379" y="61.6" class="st21" width="29.9" height="1.7"/>
	<rect x="286.5" y="66.1" class="st16" width="4.7" height="1.7"/>
	<rect x="294.4" y="66.1" class="st21" width="35.2" height="1.7"/>
	<rect x="367" y="84.4" class="st21" width="13.3" height="1.7"/>
	<rect x="289.9" y="79.8" class="st21" width="33.6" height="1.7"/>
	<rect x="294.4" y="70.7" class="st19" width="23.6" height="1.7"/>
	<rect x="374.1" y="75.3" class="st21" width="23.6" height="1.7"/>
	<rect x="320.6" y="70.7" class="st21" width="59.5" height="1.7"/>
	<rect x="289.9" y="84.4" class="st19" width="74.1" height="1.7"/>
	<rect x="378" y="66.1" class="st19" width="38.9" height="1.7"/>
	<rect x="331.8" y="66.1" class="st16" width="44.3" height="1.7"/>
	<rect x="396.4" y="70.7" class="st16" width="15.1" height="1.7"/>
	<rect x="286.5" y="70.7" class="st16" width="4.7" height="1.7"/>
	<rect x="281.8" y="75.3" class="st21" width="4.7" height="1.7"/>
	<rect x="289.9" y="75.3" class="st16" width="27.6" height="1.7"/>
	<rect x="294.4" y="89" class="st16" width="27.6" height="1.7"/>
	<rect x="367.8" y="93.5" class="st19" width="35.6" height="1.7"/>
	<rect x="324.3" y="89" class="st19" width="49.5" height="1.7"/>
	<rect x="319.4" y="93.5" class="st16" width="46" height="1.7"/>
	<rect x="294.4" y="93.5" class="st21" width="8" height="1.7"/>
	<rect x="325.4" y="79.8" class="st16" width="51.7" height="1.7"/>
	<rect x="379" y="79.8" class="st19" width="33.6" height="1.7"/>
	<rect x="320.3" y="75.3" class="st19" width="51.7" height="1.7"/>
	<rect x="281.8" y="79.8" class="st16" width="4.7" height="1.7"/>
	<rect x="281.8" y="84.4" class="st16" width="4.7" height="1.7"/>
	<rect x="286.5" y="89" class="st21" width="4.7" height="1.7"/>
	<rect x="286.5" y="93.5" class="st16" width="4.7" height="1.7"/>
	<rect x="281.8" y="97.4" class="st16" width="4.7" height="1.7"/>
	<rect x="289.9" y="97.4" class="st16" width="54.8" height="1.7"/>
	<rect x="286.5" y="101.9" class="st16" width="4.7" height="1.7"/>
	<rect x="294.4" y="101.9" class="st21" width="35.2" height="1.7"/>
	<rect x="294.4" y="106.5" class="st19" width="23.6" height="1.7"/>
	<rect x="320.6" y="106.5" class="st21" width="59.5" height="1.7"/>
	<rect x="378" y="101.9" class="st19" width="38.9" height="1.7"/>
	<rect x="331.8" y="101.9" class="st16" width="44.3" height="1.7"/>
	<rect x="286.5" y="106.5" class="st16" width="4.7" height="1.7"/>
	<path class="st19" d="M284.7,57.1c0.2,0.2,0.2,0.4,0,0.6s-0.4,0.2-0.6,0l-1.8-1.8c0,0,0,0,0,0l0,0c0,0,0,0,0,0l0,0c0,0,0,0,0,0l0,0
		v0c0,0,0,0,0,0s0,0,0,0v0l0,0c0,0,0,0,0-0.1l0,0c0,0,0,0,0-0.1l0,0c0,0,0,0,0,0l1.8-1.8c0.2-0.2,0.4-0.2,0.6,0
		c0.2,0.2,0.2,0.4,0,0.6c0,0,0,0,0,0l-1.5,1.5L284.7,57.1z"/>
	<path class="st19" d="M286.3,57.3l1.6-3.7c0.1-0.2,0.3-0.3,0.5-0.2c0,0,0,0,0,0c0.2,0.1,0.3,0.3,0.2,0.5c0,0,0,0,0,0l-1.6,3.7
		c-0.1,0.1-0.2,0.2-0.3,0.2c0,0-0.1,0-0.1,0C286.4,57.7,286.2,57.5,286.3,57.3C286.3,57.3,286.3,57.3,286.3,57.3z"/>
	<path class="st19" d="M291.6,55.8L291.6,55.8L291.6,55.8l-1.8,1.9c-0.1,0.1-0.2,0.1-0.3,0.1c-0.1,0-0.2,0-0.3-0.1
		c-0.2-0.2-0.2-0.4,0-0.6l1.5-1.5l-1.5-1.5c-0.2-0.2-0.2-0.4,0-0.6c0,0,0,0,0,0c0.2-0.2,0.4-0.2,0.6,0l1.8,1.8l0,0l0,0
		c0,0,0,0,0,0.1l0,0c0,0,0,0,0,0.1l0,0v0l0,0l0,0v0l0,0c0,0,0,0,0,0.1s0,0,0,0C291.6,55.7,291.6,55.7,291.6,55.8z"/>
	<rect x="58.6" y="54.6" class="st18" width="157.2" height="99.2"/>
	<rect x="58.6" y="54.6" class="st19" width="157.2" height="8.7"/>
	<path class="st21" d="M66.8,59c0,1.2-1,2.2-2.2,2.2c-1.2,0-2.2-1-2.2-2.2s1-2.2,2.2-2.2l0,0C65.8,56.8,66.8,57.8,66.8,59z"/>
	<circle class="st16" cx="73.6" cy="59" r="2.2"/>
	<path class="st22" d="M84.8,59c0,1.2-1,2.2-2.2,2.2c-1.2,0-2.2-1-2.2-2.2c0-1.2,1-2.2,2.2-2.2c0,0,0,0,0,0
		C83.8,56.8,84.8,57.8,84.8,59z"/>
	<rect x="68" y="80.7" class="st16" width="4.7" height="1.7"/>
	<rect x="76.1" y="80.7" class="st16" width="61.4" height="1.7"/>
	<rect x="179.1" y="80.7" class="st16" width="18.4" height="1.7"/>
	<rect x="140.3" y="80.7" class="st19" width="8.9" height="1.7"/>
	<rect x="154.5" y="103.5" class="st16" width="8.9" height="1.7"/>
	<rect x="151.8" y="80.7" class="st21" width="25" height="1.7"/>
	<rect x="72.7" y="85.3" class="st16" width="4.7" height="1.7"/>
	<rect x="80.6" y="85.3" class="st21" width="35.2" height="1.7"/>
	<rect x="139.1" y="103.5" class="st21" width="13.3" height="1.7"/>
	<rect x="76.1" y="99" class="st21" width="33.6" height="1.7"/>
	<rect x="80.6" y="89.8" class="st19" width="23.6" height="1.7"/>
	<rect x="146.3" y="94.4" class="st21" width="23.6" height="1.7"/>
	<rect x="106.8" y="89.8" class="st21" width="45.4" height="1.7"/>
	<rect x="76.1" y="103.5" class="st19" width="60" height="1.7"/>
	<rect x="150.1" y="85.3" class="st19" width="34" height="1.7"/>
	<rect x="118" y="85.3" class="st16" width="30.2" height="1.7"/>
	<rect x="156" y="89.8" class="st16" width="10.2" height="1.7"/>
	<rect x="72.7" y="89.8" class="st16" width="4.7" height="1.7"/>
	<rect x="68" y="94.4" class="st21" width="4.7" height="1.7"/>
	<rect x="76.1" y="94.4" class="st16" width="27.6" height="1.7"/>
	<rect x="80.6" y="108.1" class="st16" width="27.6" height="1.7"/>
	<rect x="127.1" y="112.7" class="st19" width="30.6" height="1.7"/>
	<rect x="110.5" y="108.1" class="st19" width="35.5" height="1.7"/>
	<rect x="92.8" y="112.7" class="st16" width="31.9" height="1.7"/>
	<rect x="80.6" y="112.7" class="st21" width="10.4" height="1.7"/>
	<rect x="160.7" y="112.7" class="st21" width="8" height="1.7"/>
	<rect x="111.5" y="99" class="st16" width="37.7" height="1.7"/>
	<rect x="151.1" y="99" class="st19" width="28.6" height="1.7"/>
	<rect x="106.5" y="94.4" class="st19" width="37.6" height="1.7"/>
	<rect x="68" y="99" class="st16" width="4.7" height="1.7"/>
	<rect x="68" y="103.5" class="st16" width="4.7" height="1.7"/>
	<rect x="72.7" y="108.1" class="st21" width="4.7" height="1.7"/>
	<rect x="148.6" y="108.1" class="st21" width="22.7" height="1.7"/>
	<rect x="153" y="116.5" class="st21" width="22.7" height="1.7"/>
	<rect x="72.7" y="112.7" class="st16" width="4.7" height="1.7"/>
	<rect x="68" y="116.5" class="st16" width="4.7" height="1.7"/>
	<rect x="76.1" y="116.5" class="st16" width="54.8" height="1.7"/>
	<rect x="179.5" y="116.5" class="st16" width="17.7" height="1.7"/>
	<rect x="133.8" y="116.5" class="st19" width="15.4" height="1.7"/>
	<rect x="72.7" y="121.1" class="st16" width="4.7" height="1.7"/>
	<rect x="80.6" y="121.1" class="st21" width="35.2" height="1.7"/>
	<rect x="76.1" y="134.8" class="st21" width="33.6" height="1.7"/>
	<rect x="80.6" y="125.6" class="st19" width="23.6" height="1.7"/>
	<rect x="106.8" y="125.6" class="st21" width="45.4" height="1.7"/>
	<rect x="76.1" y="139.3" class="st19" width="60" height="1.7"/>
	<rect x="150.1" y="121.1" class="st19" width="34" height="1.7"/>
	<rect x="118" y="121.1" class="st16" width="30.2" height="1.7"/>
	<rect x="154.5" y="125.6" class="st16" width="10.2" height="1.7"/>
	<rect x="72.7" y="125.6" class="st16" width="4.7" height="1.7"/>
	<rect x="68" y="130.2" class="st21" width="4.7" height="1.7"/>
	<rect x="76.1" y="130.2" class="st16" width="27.6" height="1.7"/>
	<rect x="147.3" y="130.2" class="st21" width="27.6" height="1.7"/>
	<rect x="111.5" y="134.8" class="st16" width="51.7" height="1.7"/>
	<rect x="106.5" y="130.2" class="st19" width="37.6" height="1.7"/>
	<rect x="68" y="134.8" class="st16" width="4.7" height="1.7"/>
	<path class="st19" d="M70.9,76.2c0.2,0.2,0.2,0.4,0,0.6c0,0,0,0,0,0c-0.1,0.1-0.2,0.1-0.3,0.1c-0.1,0-0.2,0-0.3-0.1L68.5,75l0,0
		l0,0c0,0,0,0,0-0.1l0,0c0,0,0,0,0,0c0,0,0,0,0,0v-0.1l0,0c0,0,0,0,0,0v0l0,0c0,0,0,0,0,0l0,0c0,0,0,0,0-0.1l0,0c0,0,0,0,0,0
		l1.8-1.8c0.2-0.2,0.4-0.2,0.6,0c0.2,0.2,0.2,0.4,0,0.6c0,0,0,0,0,0l-1.5,1.5L70.9,76.2z"/>
	<path class="st19" d="M72.5,76.4l1.6-3.7c0.1-0.2,0.3-0.3,0.5-0.2c0,0,0,0,0,0c0.2,0.1,0.3,0.3,0.2,0.5c0,0,0,0,0,0l-1.6,3.7
		c-0.1,0.1-0.2,0.2-0.3,0.2c0,0-0.1,0-0.1,0C72.5,76.8,72.4,76.6,72.5,76.4C72.5,76.4,72.5,76.4,72.5,76.4z"/>
	<path class="st19" d="M77.8,74.9L77.8,74.9L77.8,74.9L76,76.8c-0.1,0.1-0.2,0.1-0.3,0.1c-0.1,0-0.2,0-0.3-0.1
		c-0.2-0.2-0.2-0.4,0-0.6c0,0,0,0,0,0l1.5-1.5l-1.5-1.5c-0.2-0.2-0.2-0.4,0-0.6c0,0,0,0,0,0c0.2-0.2,0.4-0.2,0.6,0l1.8,1.8l0,0l0,0
		c0,0,0,0,0,0.1c0,0.1,0,0,0,0c0,0,0,0,0,0.1l0,0v0c0,0,0,0,0,0v0.1l0,0c0,0,0,0,0,0.1l0,0L77.8,74.9z"/>
</g>
<g id="freepik--Character--inject-22">
	<polygon class="st23" points="466.7,285.3 388.1,285.3 403.8,194.1 462.6,194.1 	"/>
	<polygon class="st21" points="466.7,285.3 459.8,285.3 456,194.1 462.6,194.1 	"/>
	<path class="st24" d="M411,150.6c2.2-4.1,10.1-12.5,19.6-8c13.5,6.5,8,33.1,12.7,43.1c8.6,18.1,4.8,32.8-6.4,32.4
		c-12.6-0.5-20.6-15.5-12.6-41.5c5-16.2,2.2-24.7-1.3-25.1c-3.5-0.4-6.6,3.2-6.6,3.2L411,150.6z"/>
	<path class="st24" d="M411.9,149.1c1.3-1.8,2.8-3.5,4.5-5c1.7-1.5,3.8-2.7,6-3.4c2.3-0.7,4.8-0.8,7.1-0.1c2.3,0.7,4.4,1.9,6.1,3.5
		c1.7,1.6,2.9,3.6,3.7,5.8c0.8,2.1,1.3,4.3,1.6,6.5c0.4,4.4,0.3,8.8-0.3,13.2c0.1-4.4-0.2-8.7-0.7-13c-0.3-2.1-0.9-4.2-1.7-6.2
		c-0.8-2-2-3.8-3.5-5.3c-1.6-1.5-3.5-2.6-5.6-3.2c-2.1-0.7-4.3-0.7-6.4-0.1c-2.2,0.6-4.2,1.6-5.9,3c-0.9,0.7-1.8,1.4-2.6,2.1
		C413.5,147.5,412.7,148.3,411.9,149.1z"/>
	<path class="st24" d="M426.8,167.7c-0.6,2.6-1.5,5.2-2.3,7.7c-0.8,2.6-1.7,5.1-2.4,7.7c-0.7,2.6-1.4,5.2-1.9,7.8
		c-0.5,2.6-0.7,5.2-0.7,7.9c0,2.6,0.5,5.2,1.5,7.6c1.1,2.4,2.7,4.6,4.6,6.5c1.9,1.9,4.2,3.4,6.8,4.3c1.3,0.5,2.7,0.7,4.1,0.8
		c0.7,0,1.4,0,2.1,0c0.7,0,1.4-0.1,2.1-0.3c-1.3,0.5-2.8,0.7-4.2,0.6c-1.4,0-2.9-0.2-4.2-0.6c-1.4-0.4-2.7-0.9-3.9-1.6
		c-1.2-0.7-2.4-1.6-3.4-2.5c-1-1-2-2-2.8-3.1l-0.6-0.9l-0.6-0.9c-0.4-0.6-0.7-1.2-1-1.9c-1.1-2.6-1.7-5.3-1.7-8
		c-0.1-5.5,1.2-10.8,2.9-15.9c0.8-2.6,1.8-5.1,2.8-7.6C424.8,172.6,425.9,170.2,426.8,167.7z"/>
	<path class="st25" d="M401.3,212.1c-6.3,25.1-12.6,44.4-19.7,49.1c-5.8,3.8-13.9,6.5-22.2,8.3c-8.9,1.9-18,3.2-27,3.9
		c-2.8,0.2-5.1,0.4-6.8,0.5c-4.1,0.3-10.8-26.8-7.9-30.1c0.7-0.8,3.4-1.3,7.1-1.8c12.7-1.6,37.8-2,39.3-3.4
		c1.5-1.4,14.3-19.4,25.3-33.5C396.9,195.4,404.8,198.1,401.3,212.1z"/>
	<path class="st25" d="M333.7,271.1c-0.5,0.2-7.7,3.4-12.2,4.5c-3.3,0.8-12.9,3-14.2-0.6c-0.9-2.4,4.6-4.3,8.5-5.8
		c2-0.8,4.6-2.8,4-4.1c-0.9-2.3-6.2-0.2-9.6,1.6c-6.7,3.6-15.7,10.1-19.5,6.6c-1.5-1.3,0.4-3.5,3-5.7c-4.3,2.5-8.8,4.4-10.5,3
		c-1-0.8-1-1.8-0.4-3c-1.3,0.4-2.4,0.2-3.2-0.6c-1.3-1.5-0.6-3.5,1-5.6c-0.5-0.1-1-0.4-1.2-0.9c-2.7-4.5,12.1-16.5,17.1-17.5
		c14.8-2.9,30.2-1.1,30.2-1.1C332.3,246.9,333.7,271.1,333.7,271.1z"/>
	<path class="st24" d="M312.7,256.7c-3.5,0.4-6.9,1.5-9.9,3.4c-3.5,2.2-6.3,5.3-9.6,7.8c-0.1,0.1,0,0.2,0.1,0.1
		c1.5-1.3,3.2-2.5,4.8-3.7c1.6-1.3,3.1-2.5,4.7-3.6C305.8,258.7,309.1,257.3,312.7,256.7C312.7,256.7,312.7,256.7,312.7,256.7z"/>
	<path class="st24" d="M310.2,250.4c-3.9,0.9-7.8,1.8-11.5,3.5c-4,1.8-7.1,5-10.3,8c-1.9,1.8-3.7,3.7-5.5,5.5
		c-0.1,0.1,0,0.2,0.1,0.1c3.2-3.1,6.4-6.1,9.8-9c3.1-2.7,6.7-4.8,10.6-6.1C305.6,251.6,307.9,251,310.2,250.4
		C310.2,250.4,310.2,250.4,310.2,250.4C310.2,250.4,310.2,250.4,310.2,250.4z"/>
	<path class="st24" d="M306.3,244.8c-3.8,0.6-7,1.2-10.4,3c-4.5,2.5-8.9,6.8-10.4,8.3c-1.7,1.7-3.3,3.4-5,5.2
		c-0.1,0.1,0.1,0.2,0.1,0.1c3.7-3.9,7.6-7.5,11.8-10.8c2-1.6,4.2-2.9,6.5-3.9C301.4,245.9,303.8,245.2,306.3,244.8L306.3,244.8z"/>
	<path class="st19" d="M396.6,237.4L374,224.1c0,0,9.6-15.6,17.9-22.9c8.2-7.3,11.6-1.6,10.3,9.1C401,220.9,396.6,237.4,396.6,237.4
		z"/>
	<path class="st24" d="M377.6,220.7c3.6,1.8,13.3,7.2,19.1,11.5c0,0,0,0.2-0.1,0.2c-5.4-2.8-15.7-9.2-19.1-11.4
		C377.4,220.9,377.5,220.7,377.6,220.7z"/>
	<path class="st24" d="M378.4,226.7l20.7,12.2c0,0,4.3-16.5,5.6-27.1c0.8-6.9-0.3-11.7-3.4-12.3L378.4,226.7z"/>
	<path class="st19" d="M410.2,150.5c0.2-1.2,1.4-2.7,2.3-2.8c0.9-0.1,6.7,3.5,6.9,5.1c0.3,1.6-2.8,2.5-2.8,2.5L410.2,150.5z"/>
	<path class="st19" d="M377.7,285l76.6,0.2c0,0-17.4-66.3-32.3-83c-0.3-0.4-0.7-0.7-1-1.1c-0.1-0.1-0.1-0.1-0.2-0.2
		c-1.2-1.2-2.5-2.2-4-2.9c-0.3-0.1-0.5-0.3-0.8-0.4c-5.7-2.5-11.8-0.4-16.2,3.1c-1.4,1.1-17.1,20.6-18.5,28
		c-1.2,6.5,3.5,13.6,3.5,13.6L377.7,285z"/>
	<path class="st24" d="M396,239.8c3.2,0.3,6.3,0.8,9.3,1.5c1.5,0.4,3,0.8,4.5,1.3c0.7,0.2,1.5,0.5,2.3,0.7c0.8,0.2,1.6,0.4,2.4,0.5
		c0,0,0,0,0,0.1c0,0,0,0,0,0c-0.8,0-1.6,0-2.3-0.1c-0.7-0.1-1.5-0.2-2.2-0.4c-1.5-0.4-3.1-0.8-4.6-1.2c-3.1-0.8-6.2-1.6-9.4-2.2
		C395.7,240,395.8,239.8,396,239.8z"/>
	<path class="st24" d="M388.1,242.4c2.6-0.2,5.2-0.3,7.9-0.3c1.3,0,2.6,0.1,3.9,0.3c0.6,0.1,1.2,0.1,1.9,0.2c0.6,0.1,1.4,0.3,2,0.3
		c0.1,0,0.1,0.1,0,0.1c-0.7-0.1-1.3,0-2,0l-2-0.1c-1.3,0-2.6-0.1-3.9-0.1c-2.6-0.1-5.2-0.2-7.8-0.2
		C387.9,242.6,388,242.4,388.1,242.4z"/>
	<g class="st26">
		<path d="M403,232.7c-0.5,0.2-0.6,0.8-0.4,1.2c0.1,0.2,0.3,0.3,0.6,0.3c0.3,0,0.5,0,0.8-0.2l5.6-3.6c0,0,0.1,0,0.1-0.1h0.1
			c0,0,0.1-0.1,0.1-0.1c0,0,0.1,0,0.1,0c0,0,0-0.1,0.1-0.1c0,0,0-0.1,0.1-0.1l0-0.1c0,0,0-0.1,0-0.1c0,0,0,0,0-0.1l0-0.1
			c0,0,0,0,0-0.1c0,0,0-0.1,0-0.1s0,0,0,0c0,0,0-0.1,0-0.1v0c0,0,0-0.1-0.1-0.1l-2.8-4.3c-0.3-0.4-0.9-0.4-1.3-0.1
			c-0.5,0.2-0.6,0.8-0.4,1.2l2.4,3.6L403,232.7z"/>
		<path d="M399.1,232.8l-0.9-8.4c-0.1-0.4-0.4-0.6-0.8-0.5c-0.1,0-0.1,0-0.2,0c-0.5,0.1-0.8,0.5-0.8,1l0.9,8.4
			c0,0.3,0.3,0.5,0.6,0.5c0.1,0,0.2,0,0.3,0C398.8,233.7,399.1,233.3,399.1,232.8z"/>
		<path d="M387.8,228.5L387.8,228.5c0,0,0,0.1,0.1,0.1l2.8,4.3c0.1,0.2,0.4,0.3,0.6,0.3c0.3,0,0.5-0.1,0.8-0.2
			c0.5-0.2,0.7-0.8,0.4-1.2l-2.4-3.6l4.7-3c0.5-0.2,0.6-0.8,0.4-1.2c-0.3-0.4-0.9-0.4-1.3-0.1l-5.6,3.6c0,0-0.1,0.1-0.1,0.1l0,0
			c0,0-0.1,0.1-0.1,0.1l0,0c0,0-0.1,0.1-0.1,0.1c0,0,0,0,0,0l0,0.1l0,0.1c0,0,0,0.1,0,0.1v0.1c0,0,0,0,0,0c0,0,0,0.1,0,0.1
			c0,0,0,0,0,0L387.8,228.5z"/>
	</g>
	<path class="st22" d="M383.2,251.9c0.1,0.1,0.2,0.1,0.3,0.2l0.7,0.3c0.2,0.1,0.4,0.1,0.7,0.2c0.4,0.1,0.9,0.2,1.3,0.3
		c0.9,0.1,1.8,0.1,2.7-0.2c0.4-0.1,0.9-0.3,1.2-0.6c0.4-0.3,0.7-0.6,0.9-1c0.5-0.7,0.9-1.5,1.1-2.4c0.4-1.7,0.7-3.4,0.8-5.1
		c0-0.3,0-0.6,0-0.9c0-0.1,0-0.2,0-0.3c0.1-3-0.1-6-0.2-9c-0.2-3.4-0.5-6.8-0.5-10.2c0-1.5,0-3,0.1-4.5c0-0.1,0-0.1,0-0.2
		s0-0.3,0-0.4c0.1-1.7,0.4-3.4,1-4.9c0.3-0.8,0.9-1.5,1.6-1.9c0.4-0.2,0.8-0.4,1.2-0.4c0.4,0,0.9-0.1,1.3,0c1.8,0.1,3.5,0.4,5.2,1
		c1.1,0.4,2.3,0.8,3.3,1.3l0.3,0.1c2,0.9,4,2,6,3.1c3.1,1.7,6.1,3.6,9.3,5.2c1.1,0.5,2.2,1,3.3,1.5l0.1,0.1c0.5,0.2,1,0.4,1.5,0.5
		c1.7,0.6,3.5,0.9,5.3,1c1,0,2-0.1,2.9-0.4c0,0,0-0.1-0.1-0.1c-0.9,0.2-1.9,0.4-2.9,0.3c-1.8-0.1-3.5-0.4-5.2-1
		c-0.5-0.2-1-0.3-1.5-0.5l-0.1-0.1c-1.1-0.5-2.2-1-3.3-1.5c-3.2-1.6-6.2-3.4-9.3-5.2c-1.9-1.1-3.8-2.1-5.9-3.1l-0.2-0.1
		c-1.1-0.5-2.3-1-3.5-1.4c-1.7-0.6-3.5-0.9-5.3-1c-0.5,0-0.9,0-1.4,0c-0.5,0.1-0.9,0.2-1.3,0.5c-0.8,0.5-1.3,1.2-1.7,2
		c-0.6,1.6-1,3.3-1.1,5c0,0.2,0,0.4,0,0.5c0,0.1,0,0.1,0,0.2c-0.1,1.5-0.1,2.9-0.1,4.4c0.1,3.4,0.3,6.8,0.5,10.2
		c0.2,2.9,0.3,5.7,0.3,8.6c0,0.1,0,0.2,0,0.3c0,0.4,0,0.8,0,1.3c-0.1,1.7-0.3,3.4-0.7,5c-0.2,0.8-0.6,1.6-1.1,2.3
		c-0.2,0.3-0.5,0.7-0.9,0.9c-0.3,0.3-0.7,0.5-1.1,0.6c-0.8,0.2-1.7,0.3-2.6,0.2c-0.4-0.1-0.9-0.2-1.3-0.3c-0.2-0.1-0.4-0.1-0.7-0.2
		l-0.6-0.3l-0.4-0.2L383.2,251.9z M381.4,228.5c1.4,1.4,2.8,2.8,4.1,4.3c2.5,3,4.8,6.1,7.2,9.2l0.3,0.4l0.9,1.2
		c1.6,2.1,3.2,4.3,4.9,6.4c0,0.1,0.1,0.1,0.1,0.2c1.1,1.4,2.3,2.7,3.6,3.9c1.6,1.6,3.3,3.1,5.2,4.4c0.5,0.3,1,0.6,1.5,0.9
		c0.5,0.3,1,0.5,1.5,0.8c1,0.5,2.2,0.7,3.3,0.5c1.1-0.3,2.1-0.8,3-1.6c0.9-0.7,1.6-1.6,2.3-2.5c1.3-1.8,2.5-3.7,3.5-5.7
		c2.1-4,3.9-8.1,5.7-12.2c1.8-4.1,3.8-8.1,6-12c0.2-0.4,0.5-0.7,0.7-1.1l0.1,0.3c-0.2,0.3-0.4,0.6-0.6,0.9c-2.2,3.9-4.2,7.9-6,12
		c-1.8,4.1-3.6,8.2-5.7,12.2c-1,2-2.2,3.9-3.6,5.8c-0.7,0.9-1.5,1.8-2.3,2.5c-0.9,0.8-1.9,1.3-3.1,1.6c-1.2,0.2-2.4,0-3.5-0.5
		c-0.5-0.3-1.1-0.5-1.6-0.8c-0.5-0.3-1-0.6-1.5-0.9c-1.9-1.3-3.7-2.8-5.3-4.4c-1.2-1.2-2.4-2.6-3.5-3.9c-0.1-0.1-0.1-0.1-0.1-0.2
		c-1.7-2.1-3.3-4.2-5-6.4l-0.7-0.9l-0.3-0.4c-2.4-3.2-4.7-6.4-7.3-9.4c-1.2-1.5-2.6-2.9-4-4.2C381.4,228.6,381.4,228.6,381.4,228.5z
		 M417,273.2c2.9-3.5,5.7-7,8.9-10.3c3.1-3.3,6.6-6.4,10.9-8.3c1.1-0.5,2.2-0.8,3.3-1c0.6-0.1,1.2-0.2,1.7-0.2c0.6,0,1.2-0.1,1.8,0
		c0.7,0,1.3,0.1,2,0.2l0,0.1c-0.6-0.1-1.3-0.1-2-0.2c-0.6,0-1.2,0-1.7,0c-0.6,0.1-1.2,0.1-1.7,0.3c-1.1,0.2-2.2,0.6-3.3,1
		c-4.2,1.9-7.7,5-10.8,8.3s-6,6.8-8.9,10.3c-1.3,1.6-2.7,3.2-4.1,4.8l-6.9,6.9C407.7,283.4,415.7,274.8,417,273.2z M381.4,263
		c0.4,1.1,0.9,2.3,1.3,3.4c1.5,3.9,2.9,7.8,4.6,11.6l2.4,5.3c-1.7-3.8-5.9-13-7.4-16.9c-0.4-1-0.7-1.9-1.1-2.9L381.4,263z
		 M388.2,269.2c0.1-0.3,0.1-0.6,0.2-1l0.2-1c0.1-0.6,0.4-1.3,0.5-1.9c0.8-2.5,1.9-5,3.3-7.2c1.8-2.9,3.8-5.6,6.1-8
		c0.1-0.1,0.1-0.1,0.2-0.2c1.3-1.4,2.7-2.8,4-4.2c3.9-3.8,8-7.3,11.9-11.1c2-1.9,3.9-3.8,5.7-5.8c0.5-0.5,0.9-1,1.3-1.5
		s0.9-1,1.3-1.6c0.7-0.9,1.3-1.9,1.9-3c0,0,0.1-0.1,0.1-0.2c0-0.1,0.1-0.2,0.1-0.2c1.1-2.4,1.8-5,1.8-7.6c0-2.6-0.4-5.2-1.2-7.8
		c-0.1-0.3-0.2-0.6-0.3-0.9l0.1,0.2c0.1,0.2,0.2,0.4,0.2,0.7c0.9,2.5,1.3,5.1,1.3,7.8c0,2.6-0.6,5.3-1.8,7.7c0,0.1-0.1,0.2-0.1,0.2
		c0,0.1,0,0.1-0.1,0.2c-0.5,1.1-1.2,2.1-1.9,3c-0.4,0.5-0.8,1.1-1.3,1.6c-0.5,0.5-0.9,1-1.3,1.5c-1.8,2-3.7,3.9-5.7,5.8
		c-3.9,3.7-8,7.3-11.8,11.1c-1.4,1.4-2.8,2.8-4.1,4.2c-0.1,0.1-0.1,0.1-0.2,0.2c-2.3,2.5-4.3,5.1-6,8c-1.4,2.3-2.5,4.7-3.3,7.2
		c-0.2,0.6-0.4,1.2-0.5,1.9l-0.2,1c-0.1,0.3-0.1,0.6-0.2,1c-0.6,3-1.4,8.8,6.4,15.7l-5.4-6.9C387.9,275.4,387.5,272.2,388.2,269.2
		L388.2,269.2z M384.5,221.6l0.4-0.2c2.3-1.1,4.7-2,7.1-2.9l0.3-0.1c2.1-0.8,4.1-1.5,6.2-2.3c2.3-0.9,4.5-1.7,6.7-2.8l0.8-0.4
		l0.3-0.1c1.8-0.9,3.5-1.9,5.1-3.1c1.9-1.4,3.5-3.2,4.7-5.2c0.6-1,1-2.1,1.2-3.2c0.2-1,0.3-2.1,0.2-3.1c0.1,0,0.2,0.1,0.3,0.2
		c0.1,1,0,2-0.2,3c-0.3,1.1-0.7,2.3-1.3,3.3c-1.2,2.1-2.8,3.8-4.8,5.3c-1.6,1.1-3.3,2.2-5,3l-0.3,0.1l-1,0.5c-2.2,1-4.5,1.9-6.7,2.8
		c-2.1,0.8-4.2,1.5-6.3,2.3l-0.3,0.1c-2.4,0.9-4.7,1.8-7,2.8l-0.6,0.3C384.4,221.8,384.4,221.7,384.5,221.6L384.5,221.6z"/>
	<path class="st25" d="M425.5,204.5c15.1,19,35.2,52.2,26.2,59.1c-14.8,11.2-57,16.3-66.7,17.1c-4.2,0.3-11.4-27.1-8.5-30.5
		s47.3-4.1,47.8-6.8c0.2-1.5-6-15.2-9.6-31.9C410.4,192.2,421.3,199.2,425.5,204.5z"/>
	<path class="st25" d="M383.8,248.2c0,0-12.7-0.6-21.1-0.6c-4.7,0-12.6,0.7-16,2.3c-5.1,2.3-25,15.4-22,20.2
		c2.8,4.4,18.4-8.9,18.4-8.9s-17,12.1-12.7,16.8c4.3,4.7,20-12.7,20-12.7s-17.2,12.8-12,17c3.9,3.1,19-11.9,19-11.9
		s-14.7,11.1-10.8,14.5c4.3,3.8,19.1-9.2,19.1-9.2c11.4,7,19.7,5.7,25.5,4C392.8,279.2,383.8,248.2,383.8,248.2z"/>
	<path class="st24" d="M348.8,256.6c-2.1,1.3-4.1,2.7-6.1,4.2c-1.9,1.5-3.8,3.1-5.6,4.8c-2.3,2.2-4.4,4.6-6.2,7.3
		c3.5-4.5,10.3-10,12.3-11.6C345.1,259.8,347,258.2,348.8,256.6C348.9,256.6,348.9,256.5,348.8,256.6z"/>
	<path class="st24" d="M354.5,263.4c-2.5,1.8-5.1,3.6-7.6,5.5c-2.5,1.9-5.8,4.8-8.1,6.9c-0.2,0.2,0,0.5,0.2,0.3
		c2.4-2,5.9-4.7,8.3-6.7C349.7,267.4,352,265.3,354.5,263.4C354.6,263.4,354.5,263.4,354.5,263.4z"/>
	<path class="st24" d="M360.4,268.4c-4,2.6-7.6,5.9-11,9.3c-0.2,0.2,0,0.2,0.2,0c3.6-3.2,6.4-5.7,10.8-9.2
		C360.5,268.5,360.4,268.4,360.4,268.4z"/>
	<path class="st24" d="M385.6,247.8c-5.8-0.3-22.9-1-28.7-0.8c-5.1,0.2-9.4,1.1-13.8,3.8c-9.5,5.7-15.7,12.6-17.3,14.8
		c-0.9,1.3-2.3,3.3-1.2,4.7c1.4,1.8,6.8,0.3,12.6-4.6c0.2-0.2,0.1-0.3-0.1-0.1c-8.2,6.1-11.3,5.2-12.1,4.1c-0.5-0.7,0.1-1.9,0.6-2.9
		c0.8-1.3,1.8-2.5,3-3.6c3.8-3.8,8-7.1,12.4-10.1c4.8-3.3,10.5-5.2,16.3-5.4c6-0.3,22.4,0.6,28.3,0.2
		C385.8,248,385.8,247.8,385.6,247.8z"/>
	<path class="st24" d="M329.7,275.3c0.4-1.6,1.6-3,2.5-4.2c1.2-1.6,2.5-3.1,3.9-4.4c0.1-0.1,0.2,0,0.1,0.1c-1.3,1.3-2.4,2.8-3.5,4.3
		c-0.6,0.8-1.1,1.7-1.6,2.6c-0.5,0.8-1,1.8-0.8,2.8c0.3,1.9,2.7,2,4.2,1.5c0.9-0.3,1.8-0.7,2.7-1.2c1.2-0.7,2.3-1.5,3.3-2.3
		c0.1-0.1,0.3,0,0.2,0c-2.2,1.9-6.4,6-9.6,4.3C330,278.1,329.3,276.7,329.7,275.3z"/>
	<path class="st19" d="M451.2,233.5l-30.6-0.4c0,0-6-14.3-8.4-27c-2.4-12.7,8.7-9,20.4,4.4C444.4,224,451.2,233.5,451.2,233.5z"/>
	<path class="st22" d="M415.1,217.8c0,0.1,0.1,0.2,0.1,0.3c2,1.2,4.1,2.3,6.2,3.4c1.1,0.5,2.2,1,3.3,1.5l0.1,0.1
		c0.5,0.2,1,0.4,1.5,0.5c1.7,0.6,3.5,0.9,5.3,1c1.8,0,3.5-0.4,5-1.2l0.2-0.1l0.5-0.3c1.3-0.8,2.4-1.8,3.3-3l0-0.1
		c-0.9,1-1.9,2-3,2.7c-0.2,0.2-0.5,0.3-0.7,0.4l-0.1,0c-1.6,0.8-3.3,1.3-5.1,1.2c-1.8-0.1-3.5-0.4-5.2-1c-0.5-0.2-1-0.3-1.5-0.5
		l-0.1-0.1c-1.1-0.5-2.2-1-3.3-1.5C419.4,220.2,417.2,219,415.1,217.8z M434.5,226.6c0.7-1.1,1.4-2.2,2.2-3.3l0.2-0.2
		c0.5-0.7,1.1-1.3,1.7-1.9c0.6-0.5,1.2-1,1.8-1.4l0.2,0.2c-0.7,0.4-1.3,0.9-1.8,1.4c-0.4,0.4-0.8,0.8-1.2,1.3l-0.2,0.3
		c-1,1.2-1.8,2.5-2.6,3.8c-1.3,2.1-2.4,4.3-3.4,6.5h-0.3C432,231,433.2,228.8,434.5,226.6z M420.3,229c0.5-0.5,0.9-1,1.3-1.5
		c0.4-0.5,0.9-1,1.3-1.6c0.7-0.9,1.3-1.9,1.9-3c0,0,0.1-0.1,0.1-0.2c0-0.1,0.1-0.2,0.1-0.2c1.1-2.4,1.8-5,1.8-7.6
		c0-2.6-0.4-5.2-1.2-7.8c-0.6-1.9-1.4-3.7-2.4-5.5c0,0,0.1,0,0.1,0.1c0.9,1.7,1.7,3.5,2.3,5.4c0.9,2.5,1.3,5.1,1.3,7.8
		c0,2.6-0.6,5.3-1.8,7.7c0,0.1-0.1,0.2-0.1,0.2c0,0.1,0,0.1-0.1,0.2c-0.5,1.1-1.2,2.1-1.9,3c-0.4,0.5-0.8,1.1-1.3,1.6
		c-0.5,0.5-0.9,1-1.3,1.5c-0.3,0.4-0.7,0.7-1,1.1c0-0.1,0-0.1-0.1-0.2C419.6,229.6,420,229.3,420.3,229z M416,204.7
		c0.6-1,1-2.1,1.2-3.2c0.2-0.9,0.3-1.9,0.2-2.8c0.1,0,0.2,0.1,0.3,0.1c0,0.9,0,1.9-0.2,2.8c-0.3,1.1-0.7,2.3-1.3,3.3
		c-0.9,1.6-2.1,3-3.5,4.2l-0.1-0.3C414,207.5,415.2,206.2,416,204.7z"/>
	<path class="st24" d="M421.8,233c-0.2,0-1.2-0.2-1.2-0.2c-0.1-0.4-2-6.4-2.4-7.6c-1-2.6-2.1-5.2-3.3-7.8c0,0-0.1,0-0.1,0
		c0,0,0,0,0,0.1c0.7,2.2,1.4,4.5,2.2,6.7c-0.2-0.3-0.4-0.6-0.7-1c-0.4-0.7-0.8-1.3-1.2-2c0,0-0.1,0-0.1,0c0,0,0,0,0,0.1
		c0.3,0.9,0.8,1.8,1.4,2.7c0.2,0.4,0.5,0.7,0.8,1c0.1,0.2,0.1,0.4,0.2,0.6c0.5,1.3,2.8,7.8,3,7.8h1.5
		C421.9,233.2,421.9,233,421.8,233z"/>
	<path class="st24" d="M446.1,228c-6.6-0.3-13.2-0.3-19.9,0c-1.9,0.1-3.7,0.2-5.6,0.3c-0.1,0-0.1,0.1,0,0.1c3.3,0.1,6.6,0.1,9.9,0.1
		c3.3,0,6.6,0,10-0.1c1.9-0.1,3.7-0.1,5.6-0.2C446.2,228.1,446.2,228,446.1,228C446.2,228,446.2,228,446.1,228z"/>
	<path class="st25" d="M413.4,198.2c-0.2,1.2-5.9,9.6-11.8,9.7c-2,0-2.5-10-2.5-10l-0.2-0.7l-3.1-10.2l12.3-8.5l1.8-1.1
		c0,0,0.7,2.9,1.4,6.4c0,0.2,0.1,0.3,0.1,0.5c0,0.2,0.1,0.4,0.1,0.6c0.1,0.5,0.2,1.1,0.4,1.6c0.1,0.4,0.2,0.8,0.2,1.2
		c0.1,0.4,0.2,0.9,0.2,1.3C413,192,413.3,195.1,413.4,198.2z"/>
	<path class="st24" d="M411.3,183.6c-1.9,6-6.4,11-12.4,13.5l-3.1-10.2l12.3-8.5l1.8-1.1C409.9,177.2,410.5,180.1,411.3,183.6z"/>
	<path class="st25" d="M382,166.4c-5.5,17.9,5.1,23.1,9.2,24.2c3.7,1,16.4,4.1,23.9-13.2c7.5-17.3,0.5-25.4-7.9-28.2
		C398.9,146.5,387.6,148.5,382,166.4z"/>
	<path class="st24" d="M385.7,164.1c0.4,0,0.9,0.1,1.4,0.1c0.5,0.1,1,0,1.4-0.2c0.3-0.2,0.3-0.5,0.2-0.8c-0.3-0.5-0.9-0.8-1.5-0.8
		c-0.6-0.1-1.3,0.1-1.8,0.4c-0.3,0.2-0.4,0.7-0.1,1C385.3,164,385.5,164,385.7,164.1z"/>
	<path class="st24" d="M398.4,167.4c-0.4-0.2-0.8-0.4-1.2-0.6c-0.5-0.2-0.8-0.4-1.1-0.8c-0.1-0.3,0-0.6,0.2-0.8
		c0.6-0.3,1.2-0.3,1.8,0.1c0.6,0.2,1,0.7,1.3,1.2c0.1,0.4-0.1,0.8-0.5,0.9C398.7,167.5,398.5,167.5,398.4,167.4z"/>
	<path class="st24" d="M394.9,171.2c0,0,0.1,0.1,0.1,0.1c-0.4,1.2-0.7,2.7,0.3,3.4c0,0,0,0.1,0,0.1
		C393.9,174.2,394.3,172.3,394.9,171.2z"/>
	<path class="st24" d="M396.4,170.2c2.1,0.4,1,4.4-0.9,4C393.6,173.8,394.7,169.9,396.4,170.2z"/>
	<path class="st24" d="M397.2,170.6c0.3,0.3,0.6,0.8,1,0.9c0.4,0.1,1-0.2,1.4-0.5c0,0,0.1,0,0.1,0.1c-0.2,0.8-0.7,1.5-1.6,1.4
		c-0.9-0.1-1.2-0.9-1.2-1.7C396.9,170.7,397.1,170.5,397.2,170.6z"/>
	<path class="st24" d="M387.3,169c0,0-0.1,0-0.1,0.1c-0.3,1.2-0.8,2.6-2.1,2.8c0,0-0.1,0.1,0,0.1C386.5,172.1,387.2,170.3,387.3,169
		z"/>
	<path class="st24" d="M386.5,167.5c-2.1-0.6-3.3,3.3-1.3,3.9C387,172,388.2,168,386.5,167.5z"/>
	<path class="st24" d="M385.5,167.5c-0.4,0.1-0.8,0.4-1.2,0.3c-0.4-0.1-0.7-0.6-0.8-1.1c0,0-0.1,0-0.1,0c-0.3,0.7-0.2,1.6,0.5,2
		c0.7,0.4,1.4-0.2,1.8-0.9C385.7,167.7,385.7,167.4,385.5,167.5z"/>
	<path class="st24" d="M392,181.6c-0.4,0.2-0.8,0.6-1.3,0.5c-0.5-0.1-0.9-0.3-1.3-0.6c0,0,0,0-0.1,0c0,0,0,0,0,0
		c0.3,0.6,0.9,1,1.5,1c0.6,0,1.1-0.4,1.3-0.9C392.2,181.6,392.1,181.6,392,181.6z"/>
	<path class="st24" d="M387.7,175.4c0,0-0.8,1.8-1,2.6c0,0.1,3.1,1.6,5.2-0.2c0,0,0-0.1,0-0.1c0,0-0.1,0-0.1,0
		c-1.4,0.5-2.9,0.5-4.3,0.1c0-0.3,1.4-3,1.3-3c-0.7-0.1-1.5-0.1-2.2-0.1c1.5-3.7,3.6-7.2,5.1-10.9c0-0.1,0-0.1-0.1-0.2
		c0,0-0.1,0-0.1,0c-2.5,3.5-4.3,7.7-6,11.6C385.2,175.6,387.3,175.4,387.7,175.4z"/>
	<path class="st24" d="M387.7,178c0.3,0.8,0.7,1.4,1.3,2c0.3,0.3,0.8,0.4,1.2,0.5c1,0.1,1.3-0.7,1.4-1.4c0-0.4,0-0.8,0-1.2
		C390.4,178.3,389,178.4,387.7,178z"/>
	<path class="st27" d="M389.1,180c0.3,0.3,0.8,0.4,1.2,0.5c1,0.1,1.3-0.7,1.4-1.4C390.7,178.8,389.5,179.1,389.1,180z"/>
	<path class="st24" d="M414.2,179.7c-2.3-1.6-3.6-4.2-3.3-6.9c-3.1-2-5.6-4.7-7.3-7.9c0.1,0.4,0.5,3.3,0.7,4.8
		c-11.9-4.3-14-13.9-14-13.9c-4.7,3.1-6,5.4-6.8,6.5c0,0,1.3-7.2,6-11.3c5.9-5.1,12.1-2.9,12.1-2.9c6.5-0.4,12.6,2.6,16,7.8
		C424.2,165.5,414.2,179.7,414.2,179.7z"/>
	<path class="st24" d="M395.3,166.1c1.8,1.4,3.8,2.5,5.9,3.3l0,0c-3.3-1.5-6.1-3.8-8-6.7c-0.8-1.2-1.5-2.6-2-4
		c-0.6-1.5-0.9-3.1-0.8-4.7c0-0.1,0-0.1-0.1-0.1s-0.1,0-0.1,0.1l0,0c-0.2,1.6-0.2,3.2,0.1,4.8c0.4,1.5,1.1,3,2,4.3
		C393.1,164.2,394.1,165.2,395.3,166.1"/>
	<path class="st25" d="M411.6,176.7c0,0,5.4-4.9,7.8-3c2.4,1.9-2.5,9.6-5.9,10.1c-1.8,0.4-3.6-0.7-4-2.4c0,0,0-0.1,0-0.1
		L411.6,176.7z"/>
	<path class="st24" d="M418,175.9C418,176,418,176,418,175.9C418,176,418,176,418,175.9c-2.4,0.5-4,2.3-5.3,4.2
		c0.8-0.7,1.8-0.9,2.8,0c0.1,0,0,0.1-0.1,0.1c-0.8-0.4-1.7-0.3-2.3,0.2c-0.5,0.5-1,1-1.4,1.5c-0.1,0.2-0.5,0-0.4-0.2c0,0,0,0,0,0
		C411.8,179,414.8,175.6,418,175.9z"/>
	<path class="st24" d="M415.9,199.5c-0.8,0.9-1.6,1.9-2.4,2.8s-1.7,1.8-2.6,2.6c-1.8,1.6-3.8,3.2-6,4.1c-1.1,0.5-2.3,0.7-3.5,0.6
		c-0.6,0-1.1-0.3-1.5-0.7c-0.4-0.4-0.7-0.9-0.9-1.5c-0.4-1.1-0.6-2.3-0.7-3.5c-0.1-1.2-0.1-2.4,0-3.6c-0.3,1.2-0.4,2.4-0.3,3.6
		c0,1.2,0.2,2.4,0.5,3.6c0.2,0.6,0.5,1.2,0.9,1.7c0.2,0.3,0.5,0.5,0.8,0.6c0.3,0.1,0.6,0.2,1,0.3c1.3,0.2,2.7,0,3.9-0.5
		c1.2-0.5,2.3-1.1,3.3-1.9c1-0.8,2-1.6,2.8-2.5C412.9,203.5,414.5,201.6,415.9,199.5z"/>
</g>
<g id="freepik--character-1--inject-261">
	<polygon class="st23" points="33.5,285.3 112.1,285.3 96.5,194.1 37.7,194.1 	"/>
	<polygon class="st21" points="33.5,285.3 40.4,285.3 44.3,194.1 37.7,194.1 	"/>
	<path class="st24" d="M116.4,227.3l-8.8,0.1c-1.6-2.9-3.4-8.1-2.3-15.3c0.2-1.2-3,5.7-2.1,15.4c-9.3,0.1-21.9,0.2-33,0.2
		c-0.1-4.1-0.4-7.9-0.4-7.9c-0.4,2.7-1.1,5.3-2,7.9c-1.5,0-3,0-4.4,0c0.5-6.3-0.3-17.4-0.3-17.4c-1,6.1-3,11.9-6,17.3
		c-7-0.1-11.6-0.2-11.3-0.5c11-11.4,3.4-18.1,6.7-28.2c4-12.1,15.1-13.9,15.1-23c0-7.4-0.6-20.9,9.4-23.6c0,0,8.3-8.2,20.8-3.5
		c15.5,5.9,8.6,28.7,9.5,33.3c1.3,6.7,4.6,9,6.8,16.7s-1.5,12.7-2.1,17.9C111.4,221.9,118.1,227.3,116.4,227.3z"/>
	<path class="st24" d="M45.5,225.5c1.5-2,2.7-4.1,3.6-6.5c0.9-2.2,0.6-4.6,0.2-7c-0.5-2.4-0.8-4.9-1.1-7.3c-0.2-2.6,0.1-5.2,1-7.6
		c0.9-2.5,2.5-4.7,4.4-6.5c1.9-1.8,4-3.3,6.2-4.8c2.1-1.4,4-3,5.7-4.8c1.6-1.9,2.6-4.2,3-6.6c0,2.5-0.8,5-2.2,7.1
		c-1.6,2.1-3.4,3.9-5.5,5.4c-2,1.5-3.9,3.1-5.7,4.8c-1.7,1.7-3,3.7-3.8,5.9c-0.8,2.2-1.1,4.6-1,6.9c0.1,2.4,0.5,4.8,0.7,7.2
		c0.1,1.3,0.2,2.5,0.1,3.8c-0.1,1.3-0.4,2.6-1,3.8C48.9,221.7,47.4,223.7,45.5,225.5z"/>
	<path class="st24" d="M106.3,157.4c1.1,2.8,1.5,5.9,1.8,8.9s0.5,6,0.6,9l0.2,4.5c0,1.4,0.2,2.9,0.6,4.3c0.7,2.8,2.3,5.2,4,7.7
		c0.9,1.3,1.7,2.6,2.4,4c0.7,1.4,1.2,2.9,1.6,4.4c0.3,1.5,0.5,3.1,0.5,4.6c0.1,1.6-0.1,3.1-0.4,4.7c-0.3,1.5-0.8,3-1.3,4.4
		c-0.4,1.4-0.7,2.9-0.9,4.3c-0.3,2.9,1.2,5.8,3.6,7.7c-2.8-1.6-4.5-4.5-4.6-7.7c0-1.6,0.2-3.1,0.5-4.6c0.3-1.5,0.8-3,1-4.4
		c0.4-2.9,0.2-5.8-0.5-8.6c-0.4-1.4-0.9-2.7-1.5-4c-0.7-1.3-1.5-2.6-2.3-3.8c-0.9-1.3-1.7-2.6-2.5-3.9c-0.8-1.4-1.3-2.9-1.7-4.4
		c-0.3-1.5-0.5-3.1-0.5-4.7c0-1.5,0-3,0-4.5c0-3,0.1-6,0-9C107.2,163.4,106.9,160.4,106.3,157.4z"/>
	<path class="st28" d="M86.4,212.1c5,21.8,15.1,49.4,23,55c6.3,4.5,39.4,12.4,41.3,12.6c4.6,0.5,13.6-31.9,8.9-33.2
		c-6-1.7-34.4-2.5-36-4.2c-1.6-1.7-12-15.7-23.7-31.9C91.8,199.2,83.3,198.6,86.4,212.1z"/>
	<path class="st28" d="M147,277.9c0.5,0.3,8.3,4.2,13.1,5.6c3.6,1,13.9,3.7,15.5-0.1c1-2.6-4.9-4.9-9-6.6c-2.2-0.9-4.9-3.2-4.2-4.6
		c1.1-2.4,6.7,0,10.4,2.2c7.1,4.1,16.6,11.6,21,8c1.6-1.4-0.3-3.9-3.1-6.3c4.5,2.8,9.4,5.2,11.3,3.7c1.1-0.8,1.1-2,0.5-3.2
		c1.4,0.5,2.6,0.4,3.5-0.5c1.5-1.5,0.8-3.8-0.9-6.2c0.6-0.1,1.1-0.4,1.3-0.9c3.1-4.8-12.5-18.4-17.9-19.7
		c-15.9-3.8-32.8-2.4-32.8-2.4C149.4,251.8,147,277.9,147,277.9z"/>
	<path class="st24" d="M170.4,263.2c3.8,0.6,7.4,2,10.6,4.1c4,2.7,6.7,5.8,10.1,8.9c0.1,0.1,0,0.2-0.1,0.1c-1.6-1.5-8.3-7.1-10-8.4
		C177.8,265.7,174.2,264,170.4,263.2C170.4,263.3,170.4,263.2,170.4,263.2z"/>
	<path class="st24" d="M173.4,256.5c4.2,1.1,8.5,2.3,12.4,4.3c4.3,2.2,7.6,5.7,10.8,9.1c2,2,3.9,4.1,5.8,6.2c0.1,0.1,0,0.2-0.1,0.1
		c-3.3-3.5-6.7-6.9-10.3-10.2c-3.2-3.1-7.1-5.5-11.2-7.1C178.3,258,175.8,257.3,173.4,256.5C173.3,256.5,173.3,256.5,173.4,256.5z"
		/>
	<path class="st24" d="M177.8,250.6c4.1,0.8,7.6,1.6,11.2,3.7c4.8,2.9,9.4,7.7,11,9.5c1.8,1.9,3.5,3.9,5.2,5.9
		c0.1,0.1-0.1,0.2-0.1,0.1c-3.9-4.4-8-8.5-12.4-12.3c-2.1-1.9-4.4-3.4-6.9-4.5C183.2,251.9,180.6,251.2,177.8,250.6
		C177.9,250.6,177.8,250.6,177.8,250.6z"/>
	<path class="st19" d="M123.3,239.1l-30.5-1.3c0,0-5.5-15.1-7.6-28.6c-2-13.4,9.4-8.6,20.7,5.9S123.3,239.1,123.3,239.1z"/>
	<path class="st22" d="M93.5,210.9c-0.2,0.1-0.4,0.2-0.6,0.3c-0.4,0.1-0.8,0-1.1-0.3c-0.4-0.4-1.1-0.5-1.7-0.3
		c-0.3,0.1-0.5,0.3-0.6,0.5c-0.1,0.2-0.3,0.4-0.4,0.6c0.2-0.1,0.4-0.3,0.6-0.4c0.2-0.1,0.4-0.3,0.6-0.3c0.4-0.1,0.8,0,1.1,0.3
		c0.4,0.4,1.1,0.6,1.7,0.4c0.3-0.1,0.5-0.3,0.6-0.5c0.1-0.2,0.3-0.4,0.4-0.6C93.9,210.7,93.7,210.8,93.5,210.9z M95.1,225.1
		c0-0.2-0.1-0.5-0.1-0.7c-0.1,0.2-0.1,0.5-0.2,0.7c0,0.2-0.1,0.4-0.2,0.6c-0.2,0.3-0.6,0.6-1,0.6c-0.8,0-1.5,0.6-1.5,1.4
		c0,0.1,0,0.2,0,0.3c0,0.2,0.1,0.5,0.2,0.7c0.1-0.2,0.1-0.5,0.1-0.7c0-0.2,0.1-0.4,0.2-0.6c0.2-0.3,0.6-0.5,1-0.5
		c0.6,0,1.2-0.4,1.4-1C95.2,225.6,95.2,225.4,95.1,225.1z M116.8,236.4L116.8,236.4c-0.2,0.4-0.6,0.6-1,0.6c-0.6,0-1.2,0.4-1.4,0.9
		c-0.1,0.2-0.1,0.5-0.1,0.8h0.3c0-0.2,0.1-0.4,0.2-0.5c0.2-0.3,0.6-0.5,1-0.5c0.5,0,0.9-0.2,1.2-0.6l0,0L116.8,236.4z M104.2,237.7
		c-0.2,0.1-0.4,0.3-0.6,0.3c-0.4,0.1-0.8,0-1.1-0.3c-0.4-0.4-1.1-0.6-1.7-0.3c-0.3,0.1-0.5,0.3-0.6,0.5c0,0.1-0.1,0.1-0.1,0.2h0.4
		c0.2-0.1,0.4-0.2,0.6-0.3c0.4-0.1,0.8,0,1.1,0.3l0,0l1.9,0.1c0.1-0.1,0.2-0.2,0.3-0.4c0.1-0.2,0.3-0.4,0.4-0.6
		C104.6,237.4,104.4,237.6,104.2,237.7L104.2,237.7z M109.8,221.9c-0.2,0-0.4-0.1-0.6-0.2c-0.3-0.2-0.5-0.6-0.5-1
		c0-0.8-0.7-1.5-1.5-1.5c-0.1,0-0.2,0-0.3,0c-0.3,0.1-0.5,0.1-0.8,0.2c0.3,0.1,0.5,0.1,0.8,0.1c0.2,0,0.4,0.1,0.6,0.2
		c0.3,0.2,0.6,0.6,0.6,1c0,0.6,0.4,1.2,0.9,1.4c0.3,0.1,0.6,0.1,0.8,0.1c0.3,0,0.5-0.1,0.7-0.1C110.3,222,110,222,109.8,221.9
		L109.8,221.9z"/>
	<path class="st24" d="M91.7,231.2c6.6-0.2,13.2,0.1,19.8,0.5c1.9,0.1,3.7,0.3,5.6,0.5c0.1,0,0.1,0.1,0,0.1c-3.3,0-6.6-0.1-9.9-0.2
		c-3.3-0.1-6.6-0.2-9.9-0.4c-1.9-0.1-3.7-0.2-5.6-0.4C91.7,231.3,91.7,231.3,91.7,231.2C91.7,231.2,91.7,231.2,91.7,231.2
		C91.7,231.2,91.7,231.2,91.7,231.2z"/>
	<path class="st24" d="M119.2,239l-26.4-1.1c0,0-5.5-15.1-7.6-28.6c-0.9-5.7,0.7-8.1,3.7-7.9l0,0L119.2,239z"/>
	<path class="st19" d="M112.2,285.2H37.5c0,0,16.2-62.6,31.2-80.2c0.3-0.4,0.7-0.8,1-1.2l0.2-0.2c1.2-1.2,2.5-2.3,4-3.1
		c0.3-0.1,0.5-0.3,0.8-0.4c5.8-2.7,11.9-0.5,16.3,3.3c1.4,1.2,17.2,21.8,18.6,29.6c1.2,6.9-3.5,14.4-3.5,14.4L112.2,285.2z"/>
	<path class="st22" d="M78.8,219.2c-0.2,0-0.4-0.1-0.6-0.2c-0.3-0.2-0.5-0.6-0.5-1c0-0.8-0.7-1.5-1.5-1.5c-0.1,0-0.2,0-0.3,0
		c-0.3,0-0.5,0.1-0.7,0.2c0.2,0.1,0.5,0.1,0.7,0.1c0.2,0,0.4,0.1,0.6,0.2c0.3,0.2,0.6,0.6,0.6,1c0,0.6,0.4,1.2,0.9,1.4
		c0.3,0.1,0.6,0.1,0.8,0.1c0.3,0,0.5-0.1,0.8-0.1C79.3,219.3,79.1,219.3,78.8,219.2z M92.6,268.5c-0.2,0-0.4-0.1-0.6-0.2
		c-0.3-0.2-0.5-0.6-0.5-1c0-0.8-0.7-1.5-1.5-1.5c-0.1,0-0.2,0-0.3,0c-0.3,0-0.5,0.1-0.7,0.1c0.2,0.1,0.5,0.1,0.7,0.1
		c0.2,0,0.4,0.1,0.6,0.2c0.3,0.2,0.6,0.6,0.6,1c0,0.6,0.4,1.2,0.9,1.4c0.3,0.1,0.6,0.1,0.8,0.1c0.3-0.1,0.5-0.1,0.8-0.2
		C93.1,268.6,92.9,268.6,92.6,268.5z M59.3,239.8c-0.2,0-0.4-0.1-0.6-0.2c-0.3-0.2-0.5-0.6-0.5-1c0-0.6-0.4-1.2-1-1.4
		c-0.3-0.1-0.6-0.1-0.8-0.1c-0.3,0-0.5,0.1-0.8,0.1c0.3,0.1,0.5,0.1,0.8,0.2c0.2,0,0.4,0.1,0.6,0.2c0.3,0.2,0.6,0.6,0.6,1
		c0,0.6,0.4,1.2,0.9,1.4c0.3,0.1,0.6,0.1,0.8,0.1c0.3,0,0.5-0.1,0.7-0.1C59.8,239.9,59.6,239.9,59.3,239.8z M88.7,285
		c-0.2,0-0.4-0.1-0.6-0.2c-0.3-0.2-0.5-0.6-0.5-1c0-0.8-0.7-1.5-1.5-1.5c-0.1,0-0.2,0-0.3,0c-0.2,0-0.5,0.1-0.7,0.1
		c0.2,0.1,0.5,0.1,0.7,0.2c0.2,0,0.4,0.1,0.6,0.2c0.3,0.2,0.6,0.6,0.6,1c0,0.6,0.4,1.2,0.9,1.4h1.2c0.1,0,0.2,0,0.4-0.1
		C89.2,285.1,89,285.1,88.7,285L88.7,285z M74.2,260.7c-0.2,0-0.4-0.1-0.6-0.2c-0.3-0.2-0.5-0.6-0.5-1c0-0.6-0.4-1.2-1-1.4
		c-0.3-0.1-0.5-0.1-0.8,0c-0.3,0-0.5,0.1-0.7,0.1c0.2,0.1,0.5,0.1,0.7,0.1c0.2,0,0.4,0.1,0.6,0.2c0.3,0.2,0.6,0.6,0.6,1
		c0,0.6,0.4,1.2,0.9,1.4c0.3,0.1,0.6,0.1,0.8,0.1c0.3-0.1,0.5-0.1,0.8-0.2C74.7,260.8,74.5,260.8,74.2,260.7L74.2,260.7z
		 M38.1,283.2L38.1,283.2L38.1,283.2l-0.1,0.3h0.1c0.2-0.1,0.5-0.1,0.7-0.2C38.6,283.3,38.4,283.3,38.1,283.2L38.1,283.2z
		 M47.4,265.2c-0.2,0-0.4-0.1-0.6-0.2c-0.3-0.2-0.5-0.6-0.5-1c0-0.8-0.7-1.5-1.5-1.5c-0.1,0-0.2,0-0.3,0l-0.4,0.1l0,0.1l0.5,0.1
		c0.2,0,0.4,0.1,0.6,0.2c0.3,0.2,0.6,0.6,0.6,1c0,0.6,0.4,1.2,0.9,1.4c0.3,0.1,0.6,0.1,0.8,0.1c0.3,0,0.5-0.1,0.7-0.1
		C47.9,265.2,47.7,265.2,47.4,265.2z M86.6,240.5c-0.2,0-0.4-0.1-0.6-0.2c-0.3-0.2-0.5-0.6-0.5-1c0-0.6-0.4-1.2-1-1.4
		c-0.3-0.1-0.6-0.1-0.8-0.1c-0.2,0-0.5,0.1-0.7,0.1c0.2,0.1,0.5,0.1,0.7,0.1c0.2,0,0.4,0.1,0.6,0.2c0.3,0.2,0.6,0.6,0.6,1
		c0,0.6,0.4,1.2,0.9,1.4c0.3,0.1,0.6,0.1,0.8,0.1c0.2-0.1,0.5-0.1,0.7-0.2C87.1,240.5,86.8,240.5,86.6,240.5L86.6,240.5z
		 M107.2,253.4c-0.2,0-0.4-0.1-0.5-0.2c-0.3-0.2-0.5-0.6-0.5-1c0-0.6-0.4-1.2-1-1.4c-0.3-0.1-0.6-0.1-0.8,0c-0.2,0-0.5,0.1-0.7,0.1
		c0.3,0.1,0.5,0.1,0.7,0.1c0.2,0,0.4,0.1,0.6,0.2c0.3,0.2,0.6,0.6,0.6,1c0,0.6,0.4,1.2,0.9,1.4c0.3,0.1,0.5,0.1,0.8,0.1L107.2,253.4
		z M104.2,237.7c-0.2,0.1-0.4,0.3-0.6,0.3c-0.4,0.1-0.8,0-1.1-0.3c-0.4-0.4-1.1-0.6-1.7-0.3c-0.3,0.1-0.5,0.3-0.6,0.5
		c-0.1,0.2-0.3,0.4-0.4,0.6c0.2-0.1,0.4-0.3,0.6-0.4c0.2-0.1,0.4-0.2,0.6-0.3c0.4-0.1,0.8,0,1.1,0.3c0.4,0.4,1.1,0.6,1.7,0.3
		c0.3-0.1,0.5-0.3,0.6-0.5c0.1-0.2,0.3-0.4,0.4-0.6C104.6,237.4,104.4,237.6,104.2,237.7z M78.8,199.8c0-0.2-0.1-0.5-0.1-0.7l0,0
		c-0.1,0.2-0.1,0.5-0.1,0.7c0,0.2-0.1,0.4-0.2,0.6c-0.2,0.3-0.6,0.6-1,0.6c-0.6,0-1.2,0.4-1.4,0.9c-0.1,0.3-0.1,0.6-0.1,0.8
		c0,0.2,0.1,0.5,0.1,0.7c0.1-0.2,0.1-0.5,0.2-0.7c0-0.2,0.1-0.4,0.2-0.6c0.2-0.3,0.6-0.5,1-0.5c0.8,0,1.5-0.7,1.5-1.5
		C78.9,200,78.9,199.9,78.8,199.8L78.8,199.8z M72.9,243.6c0-0.2-0.1-0.5-0.1-0.7c-0.1,0.3-0.1,0.5-0.2,0.7c0,0.2-0.1,0.4-0.2,0.6
		c-0.2,0.3-0.6,0.6-1,0.6c-0.6,0-1.2,0.4-1.4,0.9c-0.1,0.3-0.1,0.6-0.1,0.8c0,0.2,0.1,0.5,0.2,0.7c0.1-0.2,0.1-0.5,0.1-0.7
		c0-0.2,0.1-0.4,0.2-0.6c0.2-0.3,0.6-0.5,1-0.5c0.6,0,1.2-0.4,1.4-1C73,244.1,73,243.8,72.9,243.6L72.9,243.6z M103.8,276.2
		c0-0.3-0.1-0.5-0.2-0.8c-0.1,0.3-0.1,0.5-0.1,0.8c0,0.2-0.1,0.4-0.2,0.6c-0.2,0.3-0.6,0.6-1,0.6c-0.6,0-1.2,0.4-1.4,0.9
		c-0.1,0.3-0.1,0.6-0.1,0.8c0,0.2,0.1,0.5,0.1,0.7c0.1-0.2,0.1-0.5,0.2-0.7c0-0.2,0.1-0.4,0.2-0.6c0.2-0.3,0.6-0.5,1-0.5
		c0.6,0,1.2-0.4,1.4-1C103.8,276.7,103.9,276.4,103.8,276.2L103.8,276.2z M60.6,219.8c0-0.3-0.1-0.5-0.1-0.8
		c-0.1,0.3-0.1,0.5-0.2,0.8c0,0.2-0.1,0.4-0.2,0.6c-0.2,0.3-0.4,0.5-0.7,0.5c-0.1,0.2-0.2,0.4-0.3,0.6h0.1c0.8,0,1.5-0.7,1.5-1.5
		C60.6,220,60.6,219.9,60.6,219.8L60.6,219.8z M95.1,225.1c0-0.2-0.1-0.5-0.1-0.7c-0.1,0.2-0.1,0.5-0.2,0.7c0,0.2-0.1,0.4-0.2,0.6
		c-0.2,0.3-0.6,0.6-1,0.6c-0.8,0-1.5,0.6-1.5,1.4c0,0.1,0,0.2,0,0.3c0,0.2,0.1,0.5,0.2,0.7c0.1-0.2,0.1-0.5,0.1-0.7
		c0-0.2,0.1-0.4,0.2-0.6c0.2-0.3,0.6-0.5,1-0.5c0.6,0,1.2-0.4,1.4-1C95.2,225.6,95.2,225.4,95.1,225.1z M63.2,269.4
		c-0.1-0.2-0.1-0.5-0.2-0.7c-0.1,0.3-0.1,0.5-0.1,0.7c0,0.2-0.1,0.4-0.2,0.6c-0.2,0.3-0.6,0.6-1,0.6c-0.6,0-1.2,0.4-1.4,0.9
		c-0.1,0.3-0.1,0.6-0.1,0.8c0,0.2,0.1,0.5,0.1,0.7c0.1-0.2,0.1-0.5,0.2-0.7c0-0.2,0.1-0.4,0.2-0.6c0.2-0.3,0.6-0.5,1-0.5
		c0.8,0,1.5-0.7,1.5-1.5C63.3,269.6,63.3,269.5,63.2,269.4L63.2,269.4z M93.5,211c-0.2,0.1-0.4,0.2-0.6,0.3c-0.4,0.1-0.8,0-1.1-0.3
		c-0.4-0.4-1.1-0.5-1.7-0.3c-0.3,0.1-0.5,0.3-0.6,0.5c-0.1,0.2-0.3,0.4-0.4,0.6c0.2-0.1,0.4-0.3,0.6-0.4c0.2-0.1,0.4-0.3,0.6-0.3
		c0.4-0.1,0.8,0,1.1,0.3c0.4,0.4,1.1,0.6,1.7,0.4c0.3-0.1,0.5-0.3,0.6-0.5c0.1-0.2,0.3-0.4,0.4-0.6C93.9,210.7,93.7,210.8,93.5,211
		L93.5,211z M73.3,229.2c-0.2,0.1-0.4,0.2-0.6,0.3c-0.4,0.1-0.8,0-1.1-0.3c-0.4-0.4-1.1-0.6-1.7-0.3c-0.3,0.1-0.5,0.3-0.6,0.5
		c-0.1,0.2-0.3,0.4-0.4,0.6c0.2-0.1,0.4-0.3,0.6-0.4c0.2-0.1,0.4-0.2,0.6-0.3c0.4-0.1,0.8,0,1.1,0.3c0.4,0.4,1.1,0.6,1.7,0.3
		c0.3-0.1,0.5-0.3,0.6-0.5c0.1-0.2,0.3-0.4,0.4-0.6C73.7,228.9,73.5,229.1,73.3,229.2L73.3,229.2z M59.7,256.1
		c-0.2,0.1-0.4,0.2-0.6,0.3c-0.4,0.1-0.8,0-1.1-0.3c-0.5-0.4-1.1-0.5-1.7-0.3c-0.3,0.1-0.5,0.3-0.6,0.5c-0.1,0.2-0.3,0.4-0.4,0.6
		c0.2-0.1,0.4-0.3,0.6-0.4c0.2-0.1,0.4-0.3,0.6-0.3c0.4-0.1,0.8,0,1.1,0.3c0.4,0.4,1.1,0.6,1.7,0.4c0.3-0.1,0.5-0.3,0.6-0.5
		c0.1-0.2,0.3-0.4,0.4-0.6C60.1,255.8,59.9,256,59.7,256.1L59.7,256.1z M65.6,284.1c-0.2,0.1-0.4,0.2-0.6,0.3
		c-0.4,0.1-0.8,0-1.1-0.3c-0.5-0.4-1.1-0.5-1.7-0.3c-0.3,0.1-0.5,0.3-0.6,0.5c-0.1,0.2-0.3,0.4-0.4,0.6c0.2-0.1,0.4-0.3,0.6-0.4
		c0.2-0.1,0.4-0.3,0.6-0.3c0.4-0.1,0.8,0,1.1,0.3c0.4,0.4,1.1,0.6,1.7,0.4c0.3-0.1,0.5-0.3,0.6-0.5c0.1-0.2,0.3-0.4,0.4-0.6
		C66,283.8,65.8,283.9,65.6,284.1L65.6,284.1z M92,253.4c-0.2,0.1-0.4,0.2-0.6,0.3c-0.4,0.1-0.8,0-1.1-0.3c-0.4-0.4-1.1-0.6-1.7-0.3
		c-0.3,0.1-0.5,0.3-0.6,0.5c-0.1,0.2-0.3,0.4-0.4,0.6c0.2-0.1,0.4-0.3,0.6-0.4c0.2-0.1,0.4-0.2,0.6-0.3c0.4-0.1,0.8,0,1.1,0.3
		c0.4,0.4,1.1,0.6,1.7,0.3c0.3-0.1,0.5-0.3,0.6-0.5c0.1-0.2,0.3-0.4,0.4-0.6C92.4,253,92.2,253.2,92,253.4L92,253.4z M109,264.7
		c-0.2-0.1-0.3-0.2-0.4-0.3c-0.5-0.4-1.1-0.5-1.7-0.3c-0.3,0.1-0.5,0.3-0.6,0.5c-0.1,0.2-0.3,0.4-0.4,0.6c0.2-0.1,0.4-0.3,0.6-0.4
		c0.2-0.1,0.4-0.3,0.6-0.3c0.4-0.1,0.8,0,1.1,0.3c0.3,0.3,0.6,0.4,1,0.4L109,264.7z M79.6,272.9c-0.2,0.1-0.4,0.2-0.6,0.3
		c-0.4,0.1-0.8,0-1.1-0.3c-0.6-0.6-1.5-0.6-2.1,0c-0.1,0.1-0.1,0.2-0.2,0.2c-0.1,0.2-0.3,0.4-0.4,0.6c0.2-0.1,0.4-0.3,0.6-0.4
		c0.2-0.1,0.4-0.2,0.6-0.3c0.4-0.1,0.8,0,1.1,0.3c0.4,0.4,1.1,0.6,1.7,0.3c0.3-0.1,0.5-0.3,0.6-0.5c0.1-0.2,0.3-0.4,0.4-0.6
		C80,272.6,79.8,272.8,79.6,272.9L79.6,272.9z M51.4,276.8c-0.2,0.1-0.4,0.2-0.6,0.3c-0.4,0.1-0.8,0-1.1-0.3
		c-0.4-0.4-1.1-0.6-1.7-0.3c-0.3,0.1-0.5,0.3-0.6,0.5c-0.1,0.2-0.3,0.4-0.4,0.6c0.2-0.1,0.4-0.3,0.6-0.4c0.2-0.1,0.4-0.2,0.6-0.3
		c0.4-0.1,0.8,0,1.1,0.3c0.4,0.4,1.1,0.6,1.7,0.3c0.3-0.1,0.5-0.3,0.6-0.5c0.1-0.2,0.3-0.4,0.4-0.6
		C51.8,276.5,51.6,276.6,51.4,276.8L51.4,276.8z"/>
	<path class="st24" d="M95,244.8c-3.2,0.3-6.3,0.9-9.4,1.6c-1.5,0.4-3,0.9-4.5,1.4c-0.8,0.3-1.5,0.5-2.3,0.7
		c-0.8,0.3-1.6,0.4-2.4,0.5c-0.1,0-0.1,0.1,0,0.1c0.8,0,1.6,0,2.3-0.1c0.8-0.1,1.5-0.2,2.2-0.4c1.6-0.4,3.1-0.9,4.7-1.3
		c3.1-0.8,6.3-1.7,9.5-2.3C95.2,245,95.2,244.8,95,244.8z"/>
	<path class="st24" d="M102.9,247.6c-2.6-0.3-5.3-0.4-7.9-0.3c-1.3,0-2.6,0.1-3.9,0.3l-1.9,0.2c-0.7,0.1-1.4,0.3-2.1,0.4
		c0,0-0.1,0,0,0.1c0,0,0,0,0,0c0.6-0.1,1.3,0,2,0l2-0.1c1.3,0,2.6-0.1,3.9-0.1c2.6-0.1,5.2-0.2,7.9-0.2
		C103.1,247.7,103.1,247.6,102.9,247.6z"/>
	<path class="st28" d="M67.3,206.7c-12.6,13.5-42.5,64.1-32.8,73.4s63.6-3.2,78.7-10.4c4.5-2.1-12.6-30.2-17.9-30.9
		c-4.4-0.5-26.9,9.8-27.6,8.4c-0.7-1.5,4.4-10.9,9.8-30.4C83.8,194.3,72.9,200.7,67.3,206.7z"/>
	<path class="st28" d="M117.7,229.7c10.9-1.5,14-0.2,22.5-6.4c5.6-4.1,10.6-2.2,7.4,4.2c-5.2,10.5-18.9,15.5-24.2,15.8L117.7,229.7z
		"/>
	<path class="st28" d="M88.6,240.3c0,0,12.3-6.8,23.8-9.6c8-1.9,25.7-4.2,42.7,13.3c4,4.2,6.8,12.9-2.2,8.5c-6.4-3.1-9.6-7-13.6-8.2
		c0,0,2.2,11.6-2.1,15.5c-3.8,3.4-7.8,6.5-12,9.3c-0.7-0.7-1.3-1.4-1.9-2.1c0,0-4.4,3.2-12.6,2.5L88.6,240.3z"/>
	<path class="st28" d="M120.3,230c3.8,2,11.8,6.3,17.1,12.1c5.9,6.5,15.5,20.5,10.7,24.8c-3.5,3.1-7.7-1.9-7.7-1.9s2.7,6.6-1.1,8.8
		c-3.5,2-6.4-2.1-6.4-2.1s1,4.3-2.7,5.6c-4.5,1.5-5.8-7.8-11.6-10.2C117.2,266.5,120.3,230,120.3,230z"/>
	<path class="st24" d="M129.5,247.2c3.3,2.5,9.3,9.9,10.9,17.7c0,0.2-0.1,0.3-0.1,0.1C137.4,258.7,133.7,252.8,129.5,247.2
		C129.4,247.3,129.4,247.2,129.5,247.2z"/>
	<path class="st24" d="M123.1,253.4c2.6,2.4,8.4,10.4,9.8,18.3c0,0.2-0.1,0.3-0.2,0.1C130.3,265.3,127,259.1,123.1,253.4
		C123,253.4,123.1,253.3,123.1,253.4z"/>
	<path class="st24" d="M139.2,244.3c3.6,1,5.9,2.8,8.9,4.9c1.5,1.1,3,2,4.6,2.9c1.5,0.8,3.6,2,5.1,0.7c0.9-0.7,0.8-1.9,0.7-2.9
		c-0.2-1.1-0.6-2.2-1.3-3.1c0,0,0-0.1,0.1-0.1c0.6,0.8,1.1,1.7,1.5,2.6c0.4,0.9,0.5,1.9,0.3,2.8c-0.5,2-2.8,2.2-4.5,1.7
		c-1-0.4-1.9-0.8-2.8-1.4c-0.9-0.5-1.7-1-2.5-1.6c-1.7-1.1-3.3-2.4-5-3.6c-1.6-1.1-3.3-2.1-5.1-3c-0.1,0-0.1-0.1-0.1-0.1
		S139.2,244.3,139.2,244.3z"/>
	<path class="st24" d="M146.7,256.8c-0.9-2-5.9-10.5-7.5-12.5c0,0,0-0.1,0-0.1c0,0,0.1,0,0.1,0l0,0c2.8,2.6,7.2,9.6,8.3,11.9
		c1,2.2,2.2,5,2.2,7.5c0,3.7-2.5,4.4-3.4,4.6c-1.1,0.2-2.2,0-3.2-0.5c-1.1-0.7-2.1-1.6-2.9-2.7c0,0,0-0.1,0.1-0.1
		c1.3,1.5,3.4,2.9,5.5,2.6c0.9-0.1,1.7-0.5,2.3-1.2c0.5-0.9,0.8-2,0.6-3C148.4,261.1,147.8,258.9,146.7,256.8z"/>
	<path class="st24" d="M133,271.7c0.5,0.4,1.6,2,3.3,2.3c1.2,0.3,2.5,0,3.5-0.8c0.9-0.9,1.3-2.1,1.3-3.4c-0.1-1.6-0.4-3.2-0.8-4.7
		c0-0.1,0.1-0.1,0.1,0c0.6,1.6,1,3.3,1.1,5c0.1,1.4-0.5,2.7-1.4,3.7c-1,1-2.5,1.3-3.9,0.8c-0.7-0.3-2.8-1.6-3.4-2.9
		C132.8,271.7,133,271.6,133,271.7z"/>
	<path class="st24" d="M118.9,266.4c0.6,0.4,1.1,0.8,1.6,1.3c0.5,0.5,1,1,1.5,1.6c1,1.1,1.8,2.3,2.6,3.5c0.8,1.3,1.4,2.7,2.7,3.5
		c1.2,0.9,2.8,0.9,4.1,0.1c0.6-0.5,1.1-1.1,1.3-1.9c0.2-0.8,0.3-1.7,0.2-2.5c0,0,0,0,0,0c0,0,0,0,0,0c0,0,0,0,0,0
		c0.1,0.8,0.2,1.5,0.2,2.3c-0.1,0.7-0.3,1.4-0.7,2c-0.9,1.1-2.4,1.7-3.8,1.4c-1.5-0.4-2.8-1.4-3.5-2.7c-0.9-1.4-1.7-2.9-2.7-4.3
		c-0.5-0.7-1-1.4-1.6-2.1S119.4,267.3,118.9,266.4C118.8,266.5,118.8,266.4,118.9,266.4z"/>
	<path class="st24" d="M114.5,269.6c2-0.2,4-0.6,6-1.2c0.1,0,0.2,0.2,0.1,0.2c-0.9,0.4-1.9,0.8-3,1c-1,0.2-2.1,0.3-3.1,0.2
		C114.5,269.7,114.4,269.6,114.5,269.6z"/>
	<path class="st24" d="M47.3,257.1c3.2-2.1,6.5-4,9.9-5.7c3.4-1.6,6.9-3,10.5-4.1c2.1-0.6,4.1-1.2,6.2-1.8c0.1,0,0.1,0.1,0,0.1
		c-3.6,1.1-7.2,2.5-10.6,4c-3.4,1.5-6.9,3-10.3,4.7c-1.9,0.9-3.8,1.9-5.7,2.9c0,0-0.1,0-0.1,0C47.3,257.1,47.3,257.1,47.3,257.1z"/>
	<path class="st19" d="M41.5,238.5l30.6-1c0,0,5.7-15.1,7.8-28.5s-8.8-9.3-20.3,5C48.2,228.4,41.5,238.5,41.5,238.5z"/>
	<path class="st22" d="M49.2,229.8c-0.2,0.1-0.4,0.2-0.6,0.3c-0.4,0.1-0.8,0-1-0.3c-0.1,0.2-0.2,0.3-0.4,0.5c0.4,0.4,1,0.5,1.5,0.2
		c0.3-0.1,0.5-0.3,0.6-0.5c0.1-0.2,0.3-0.4,0.4-0.6C49.6,229.5,49.4,229.7,49.2,229.8z M73.3,229.2c-0.2,0.1-0.4,0.2-0.6,0.3
		c-0.4,0.1-0.8,0-1.1-0.3c-0.4-0.4-1.1-0.6-1.7-0.3c-0.3,0.1-0.5,0.3-0.6,0.5c-0.1,0.2-0.3,0.4-0.4,0.6c0.2-0.1,0.4-0.3,0.6-0.4
		c0.2-0.1,0.4-0.2,0.6-0.3c0.4-0.1,0.8,0,1.1,0.3c0.4,0.4,1.1,0.6,1.7,0.3c0.3-0.1,0.5-0.3,0.6-0.5c0.1-0.2,0.3-0.4,0.4-0.6
		C73.7,228.9,73.5,229.1,73.3,229.2z M60.6,219.8c0-0.3-0.1-0.5-0.1-0.8c-0.1,0.3-0.1,0.5-0.2,0.8c0,0.2-0.1,0.4-0.2,0.6
		c-0.2,0.3-0.6,0.6-1,0.6c-0.6,0-1.2,0.4-1.4,0.9c-0.1,0.3-0.1,0.6-0.1,0.8c0,0.3,0.1,0.5,0.2,0.8c0.1-0.3,0.1-0.5,0.1-0.8
		c0-0.2,0.1-0.4,0.2-0.6c0.2-0.3,0.6-0.5,1-0.5c0.8,0,1.5-0.7,1.5-1.5C60.7,220,60.6,219.9,60.6,219.8L60.6,219.8z M77.6,200.9
		L77.6,200.9c-0.1,0-0.2,0-0.2,0c-0.6,0-1.2,0.4-1.4,0.9c-0.1,0.3-0.1,0.6-0.1,0.8c0,0.2,0.1,0.5,0.1,0.7c0.1-0.2,0.1-0.5,0.2-0.7
		c0-0.2,0.1-0.4,0.2-0.6c0.2-0.3,0.6-0.5,1-0.5c0.3,0,0.6-0.1,0.9-0.3C78.1,201.1,77.9,201,77.6,200.9z M63.5,209.5
		c0.2-0.1,0.4-0.3,0.6-0.5l0.2-0.3C64.1,208.9,63.8,209.2,63.5,209.5z M57.2,237.3c-0.3-0.1-0.6-0.1-0.8-0.1c-0.3,0-0.5,0.1-0.8,0.1
		c0.3,0.1,0.5,0.1,0.8,0.2c0.2,0,0.4,0.1,0.6,0.2c0.1,0.1,0.2,0.2,0.3,0.3H58l0,0C57.8,237.6,57.5,237.4,57.2,237.3L57.2,237.3z
		 M77.7,218.1c0-0.8-0.7-1.5-1.5-1.5c-0.1,0-0.2,0-0.3,0c-0.3,0-0.5,0.1-0.7,0.2c0.2,0.1,0.5,0.1,0.7,0.1c0.2,0,0.4,0.1,0.6,0.2
		c0.3,0.2,0.6,0.6,0.6,1c0,0.5,0.2,1,0.6,1.3c0-0.2,0.1-0.4,0.2-0.6C77.8,218.5,77.7,218.3,77.7,218.1z"/>
	<path class="st24" d="M70.8,237.4c0.2,0,1.2-0.2,1.2-0.2c0.1-0.4,1.8-6.7,2.3-8.1c0.9-2.8,2-5.5,3.1-8.3c0-0.1,0.2,0,0.1,0
		c-0.7,2.4-1.3,4.7-2,7.1c0.2-0.3,0.4-0.7,0.6-1c0.4-0.7,0.8-1.4,1.2-2.1c0-0.1,0.1,0,0.1,0.1c-0.3,1-0.8,1.9-1.3,2.8
		c-0.2,0.4-0.5,0.7-0.8,1.1c-0.1,0.2-0.1,0.4-0.2,0.6c-0.4,1.4-2.7,8.2-2.8,8.2h-1.5C70.8,237.6,70.7,237.4,70.8,237.4z"/>
	<path class="st24" d="M46.5,232.6c6.6-0.5,13.2-0.5,19.8-0.4c1.9,0,3.7,0.1,5.6,0.2c0.1,0,0.1,0.1,0,0.1c-3.3,0.2-6.6,0.2-9.9,0.3
		c-3.3,0.1-6.6,0.1-9.9,0.1c-1.9,0-3.7,0-5.6-0.1C46.4,232.7,46.4,232.7,46.5,232.6C46.4,232.6,46.4,232.6,46.5,232.6z"/>
	<path class="st28" d="M77.9,201c0.1,1.3,5.1,10.6,11,11.2c1.9,0.2,3.4-10.3,3.4-10.3l0.3-0.8l4-10.5l-11.6-10l-1.7-1.4
		c0,0-0.9,3-2,6.6c0,0.2-0.1,0.3-0.2,0.5c0,0.2-0.1,0.4-0.2,0.6c-0.2,0.5-0.3,1.1-0.5,1.7c-0.1,0.4-0.2,0.8-0.4,1.3
		c-0.1,0.4-0.2,0.9-0.4,1.3C78.9,194.5,78.3,197.7,77.9,201z"/>
	<path class="st24" d="M81.3,185.8c1.3,6.5,5.5,12.1,11.3,15.3l4-10.5l-11.6-10l-1.7-1.4C83.3,179.2,82.4,182.1,81.3,185.8z"/>
	<path class="st28" d="M110.8,168.8c5.4,19-5.4,24.4-9.5,25.6c-3.7,1-16.5,4.2-23.9-14.2s-0.2-26.9,8.2-29.7
		S105.4,149.8,110.8,168.8z"/>
	<path class="st24" d="M106.7,166c-0.5,0-0.9,0.1-1.4,0.1c-0.5,0.1-1,0-1.4-0.2c-0.3-0.2-0.3-0.5-0.2-0.8c0.3-0.5,0.9-0.9,1.6-0.8
		c0.6-0.1,1.3,0.1,1.8,0.5c0.3,0.3,0.4,0.7,0.1,1C107.1,165.9,106.9,166,106.7,166z"/>
	<path class="st24" d="M95,171.9c0.4-0.1,0.8-0.3,1.3-0.5c0.5-0.1,0.9-0.3,1.2-0.7c0.2-0.3,0.1-0.6-0.1-0.8
		c-0.5-0.4-1.2-0.4-1.8-0.2c-0.6,0.2-1.1,0.6-1.5,1.1c-0.2,0.4,0,0.8,0.4,1C94.7,171.9,94.8,171.9,95,171.9z"/>
	<path class="st24" d="M98.3,173.8c0,0-0.1,0.1-0.1,0.1c0.4,1.3,0.7,2.8-0.4,3.6c0,0,0,0.1,0,0.1C99.2,177,98.9,175,98.3,173.8z"/>
	<path class="st24" d="M96.7,172.8c-2.1,0.4-1.1,4.7,0.9,4.3C99.6,176.7,98.5,172.4,96.7,172.8z"/>
	<path class="st24" d="M96,173.2c-0.3,0.3-0.6,0.8-1,1c-0.4,0.2-1-0.2-1.4-0.5c0,0-0.1,0-0.1,0.1c0.2,0.8,0.7,1.6,1.6,1.5
		c0.9-0.1,1.2-0.9,1.2-1.8C96.3,173.3,96.1,173.1,96,173.2z"/>
	<path class="st24" d="M105.5,171.5c0-0.1,0.1,0,0.1,0.1c0.3,1.3,0.8,2.8,2.1,2.9c0,0,0,0.1,0,0.1
		C106.2,174.7,105.6,172.8,105.5,171.5z"/>
	<path class="st24" d="M106.4,169.8c2.1-0.7,3.2,3.5,1.3,4.1C105.8,174.6,104.6,170.4,106.4,169.8z"/>
	<path class="st24" d="M107.3,169.9c0.4,0.1,0.8,0.4,1.2,0.4c0.4-0.1,0.7-0.6,0.9-1.2c0-0.1,0.1,0,0.1,0c0.2,0.8,0.2,1.7-0.5,2.1
		c-0.7,0.4-1.4-0.2-1.8-1C107.1,170.1,107.1,169.8,107.3,169.9z"/>
	<path class="st24" d="M100.8,183.6c0.4,0.2,0.8,0.6,1.3,0.6c0.5-0.1,1-0.3,1.4-0.6c0,0,0.1,0,0.1,0.1c-0.3,0.6-0.9,1-1.5,1
		c-0.6,0-1.1-0.4-1.3-1C100.7,183.6,100.8,183.6,100.8,183.6z"/>
	<path class="st24" d="M105,178.2c0,0,0.8,1.9,1,2.8c0,0.1-3.2,1.6-5.2-0.3c0,0,0-0.1,0-0.1c0,0,0.1,0,0.1,0
		c1.4,0.5,2.9,0.5,4.3,0.1c0-0.3-1.4-3.2-1.3-3.2c0.7-0.1,1.5-0.1,2.2-0.1c-1.5-4-3.6-7.6-5-11.6c0-0.1,0-0.1,0.1-0.2
		c0.1,0,0.1,0,0.2,0.1c2.5,3.7,4.3,8.2,5.9,12.3C107.5,178.5,105.4,178.2,105,178.2z"/>
	<path class="st24" d="M94.9,152.5c0,0,1.3,2.8,0.6,5.1c-1.3,4.7-6.8,4.4-8.3,6.4c-1.4,1.9-0.3,5.1-1.5,7c-1.7,2.6-4.7,2.2-4.8,3.8
		c-0.1,1.6-0.3,6.5-2.1,7.4c-1.8,0.9-15.9-29.4,9.2-32.6c0,0,3.2-2,9-0.2c6.7,2.1,10.9,11.6,10.9,11.6c-0.4-0.4-0.9-0.8-1.4-1.1
		c-1.4-0.9-2-1.8-3-2.3c-1.6-0.9-2.3-0.3-3.9-1.1C97.7,155.5,96.1,154.1,94.9,152.5z"/>
	<path class="st24" d="M94.3,151.2c0.6,1.2,1.1,2.4,1.4,3.7c0.4,1.2,0.4,2.6,0.1,3.8c-0.5,1.2-1.4,2.1-2.5,2.7
		c-1.1,0.6-2.4,1-3.6,1.7c-0.6,0.4-1.1,0.9-1.4,1.6c-0.3,0.6-0.4,1.3-0.4,2c0,1.3-0.1,2.6-0.8,3.7c-0.7,1.1-1.8,1.8-3.1,2
		c-1.3,0.2-2.7,0.1-3.8,0.9c1.2-0.7,2.6-0.4,3.9-0.5c1.4-0.1,2.7-0.9,3.5-2c0.9-1.2,0.9-2.6,1-3.9c0-0.6,0.1-1.2,0.4-1.8
		c0.3-0.5,0.7-1,1.3-1.3c1.1-0.7,2.4-1.1,3.5-1.7c0.6-0.3,1.1-0.8,1.6-1.3c0.5-0.5,0.9-1.1,1.1-1.8c0.3-1.3,0.2-2.7-0.3-4
		C95.5,153.6,94.9,152.3,94.3,151.2z"/>
	<path class="st24" d="M94.9,152.2c0.4,1.2,1.1,2.2,1.8,3.2c0.7,1.1,1.8,1.9,3,2.3c0.6,0.2,1.2,0.3,1.8,0.4c0.6,0.1,1.1,0.3,1.5,0.7
		c0.4,0.5,0.8,0.9,1.3,1.3c0.5,0.4,1.1,0.6,1.7,0.7c-0.6-0.2-1.1-0.5-1.6-0.9c-0.4-0.4-0.8-0.9-1.2-1.4c-0.5-0.5-1.1-0.8-1.7-0.9
		c-0.6-0.1-1.2-0.2-1.7-0.4c-1.1-0.4-2.1-1.1-2.8-2.1C96.3,154.2,95.6,153.3,94.9,152.2z"/>
	<path class="st19" d="M75.6,176.8c0,0-7.6-14.5,0.6-22.9c8.5-8.7,20.4-5.5,20.4-5.5s-12.9,0.8-18.3,7.8
		C72.1,164.3,75.6,176.8,75.6,176.8z"/>
	<path class="st23" d="M96.5,181.3c-3.4,0.6-6.6-1.8-7.2-5.2s1.8-6.6,5.2-7.2c2.8-0.5,5.6,1.1,6.7,3.7l0,0c1.4,3.2-0.1,6.8-3.2,8.2
		C97.5,181,97,181.2,96.5,181.3z M94.6,169.7c-3,0.5-5,3.3-4.5,6.2c0.5,3,3.3,5,6.2,4.5c3-0.5,5-3.3,4.5-6.2
		c-0.1-0.4-0.2-0.9-0.4-1.3C99.5,170.7,97.1,169.3,94.6,169.7z"/>
	<path class="st23" d="M110.3,177.3c-2.4,0.4-4.9-1.7-5.8-4.8c-0.5-1.5-0.4-3.1,0.1-4.6c0.6-2.1,2.7-3.3,4.8-2.7
		c0.6,0.2,1.2,0.5,1.6,0.9c1.2,1,2.1,2.3,2.5,3.8c0.9,3.3-0.3,6.6-2.8,7.3C110.6,177.2,110.4,177.3,110.3,177.3z M107.8,165.9
		c-0.1,0-0.2,0-0.3,0.1c-1,0.4-1.8,1.2-2.1,2.2c-0.4,1.3-0.5,2.7-0.1,4.1c0.8,2.9,3.1,4.7,5.2,4.2s3-3.4,2.2-6.3
		c-0.4-1.3-1.1-2.5-2.2-3.4C109.8,166,108.8,165.8,107.8,165.9z"/>
	<path class="st23" d="M101.2,173.4l-0.7-0.5c0.7-1,2.5-2.7,4.4-1.5l-0.4,0.7C102.8,171.1,101.3,173.3,101.2,173.4z"/>
	<path class="st23" d="M73.8,182.8l-0.8-0.2c0.1-0.4,0.8-3.8,2.5-4.6c1.6-0.7,13.8-3,14.2-3.1l0.1,0.8c-3.2,0.6-12.8,2.5-14.1,3.1
		C74.6,179.4,74,181.8,73.8,182.8z"/>
	<path class="st28" d="M80.6,179.3c0,0-5.4-5.2-7.9-3.2c-2.5,2,2.4,10.2,5.9,10.8c1.8,0.4,3.6-0.7,4-2.5c0,0,0-0.1,0-0.1L80.6,179.3
		z"/>
	<path class="st24" d="M74.1,178.4C74.1,178.4,74.1,178.4,74.1,178.4C74.1,178.5,74.1,178.5,74.1,178.4c2.4,0.6,4,2.4,5.3,4.5
		c-0.8-0.7-1.8-1-2.8,0c0,0.1,0,0.1,0.1,0.1c0.8-0.4,1.7-0.3,2.4,0.3c0.5,0.5,1,1,1.4,1.6c0.1,0.2,0.5,0,0.4-0.2c0,0,0,0,0,0
		C80.3,181.7,77.3,178.1,74.1,178.4z"/>
	<path class="st28" d="M68.1,205.2c0,0,13.6,9.8,21.4,8.8s7.1-8.5,7.1-8.5s-7.8-6.8-17-6.4C72.9,199.3,68.1,205.2,68.1,205.2z"/>
</g>
<g id="freepik--Table--inject-261">
	<polygon class="st24" points="19.9,285.3 76,285.2 132,285.1 244.1,285 356.2,285.1 412.3,285.2 468.4,285.3 412.3,285.5 
		356.2,285.6 244.1,285.7 132,285.6 76,285.5 	"/>
</g>
<g id="freepik--Devices--inject-261">
	<rect x="109.1" y="283.6" class="st29" width="78.1" height="3.5"/>
	<rect x="109.1" y="283.6" class="st24" width="39.3" height="3.5"/>
	<polygon class="st18" points="147.5,287.1 223.6,287.1 234.4,235.4 158.2,235.4 	"/>
	<path class="st22" d="M185,262.4c-0.3,2.5,1.4,4.7,3.9,5c0.2,0,0.5,0,0.7,0c2.9-0.1,5.3-2.2,5.6-5.1c0.3-2.5-1.4-4.7-3.9-5
		c-0.2,0-0.5,0-0.7,0C187.8,257.4,185.4,259.5,185,262.4z"/>
	<rect x="299.9" y="283.6" class="st29" width="78.1" height="3.5"/>
	<rect x="338.7" y="283.6" class="st24" width="39.3" height="3.5"/>
	<polygon class="st18" points="339.6,287.1 263.5,287.1 252.7,235.4 328.9,235.4 	"/>
	<path class="st22" d="M302.1,262.4c0.3,2.5-1.4,4.7-3.9,5c-0.2,0-0.5,0-0.7,0c-2.9-0.1-5.3-2.2-5.6-5.1c-0.3-2.5,1.4-4.7,3.9-5
		c0.2,0,0.5,0,0.7,0C299.3,257.3,301.7,259.5,302.1,262.4z"/>
</g>
<g id="freepik--Screens--inject-22">
	<rect x="246" y="117.4" class="st22" width="93.6" height="59.7"/>
	<path class="st16" d="M340.3,177.8h-94.8v-61h94.8V177.8z M246.6,176.6h92.5V118h-92.5V176.6z"/>
	<rect x="246" y="117.4" class="st29" width="93.6" height="11.3"/>
	<path class="st16" d="M340.3,129.3h-94.8v-12.5h94.8V129.3z M246.6,128.1h92.5V118h-92.5V128.1z"/>
	<path class="st19" d="M256.6,123.2c0,1.6-1.3,2.8-2.8,2.8c-1.6,0-2.8-1.3-2.8-2.8c0-1.6,1.3-2.8,2.8-2.8
		C255.4,120.3,256.6,121.6,256.6,123.2C256.6,123.2,256.6,123.2,256.6,123.2z"/>
	<path class="st16" d="M268.3,123.2c0,1.6-1.3,2.8-2.8,2.8c-1.6,0-2.8-1.3-2.8-2.8c0-1.6,1.3-2.8,2.8-2.8
		C267,120.3,268.3,121.6,268.3,123.2C268.3,123.2,268.3,123.2,268.3,123.2z"/>
	<path class="st22" d="M279.9,123.2c0,1.6-1.3,2.8-2.8,2.8c-1.6,0-2.8-1.3-2.8-2.8c0-1.6,1.3-2.8,2.8-2.8
		C278.6,120.3,279.9,121.6,279.9,123.2C279.9,123.2,279.9,123.2,279.9,123.2z"/>
	<path class="st16" d="M262.2,151.1c0.2-6.3,5.3-11.3,11.5-11.3c2.6,0,5.2,0.8,7.3,2.4c0.8,0.6,0.9,1.8,0.2,2.6
		c-0.6,0.7-1.7,0.9-2.4,0.3c-1.4-1.2-3.2-1.8-5.1-1.7c-2.1,0-4.1,0.8-5.6,2.2c-1.5,1.5-2.3,3.4-2.3,5.5c0,2.1,0.8,4,2.3,5.5
		c1.5,1.4,3.6,2.3,5.7,2.3c1.8,0,3.6-0.6,5.1-1.7c0.8-0.5,1.9-0.4,2.5,0.3c0.6,0.8,0.4,1.9-0.3,2.5c-2.1,1.6-4.6,2.5-7.3,2.4
		C267.5,162.4,262.3,157.4,262.2,151.1z"/>
	<path class="st16" d="M286.7,156.9c0.6-0.7,1.6-0.8,2.3-0.2c1.7,1.4,3.8,2.3,6,2.4c1.4,0,2.8-0.4,3.9-1.2c0.8-0.5,1.3-1.3,1.4-2.3
		c0-0.4-0.1-0.7-0.3-1c-0.2-0.4-0.6-0.7-0.9-0.9c-1.3-0.8-2.8-1.3-4.3-1.5h-0.1c-1.4-0.2-2.8-0.6-4.1-1.2c-1.2-0.5-2.2-1.4-2.9-2.5
		c-0.5-0.8-0.7-1.7-0.7-2.6c0.1-1.8,1-3.5,2.5-4.6c1.6-1.1,3.5-1.7,5.4-1.7c2.5,0.1,4.9,1,6.9,2.5c0.7,0.5,0.9,1.5,0.4,2.2
		c-0.5,0.7-1.4,1-2.2,0.5c0,0,0,0-0.1,0c-1.6-1.1-3.1-2-5.1-2c-1.3,0-2.5,0.4-3.5,1.1c-0.7,0.4-1.2,1.2-1.2,2c0,0.3,0.1,0.6,0.2,0.9
		c0.2,0.3,0.5,0.6,0.9,0.8c1.2,0.7,2.5,1.2,3.9,1.4h0.1c1.5,0.3,3,0.7,4.3,1.3c1.3,0.6,2.4,1.5,3.1,2.6c0.5,0.8,0.8,1.7,0.8,2.7
		c-0.1,2-1.1,3.8-2.7,4.9c-1.7,1.2-3.7,1.8-5.8,1.8c-3-0.1-5.8-1.2-8-3.1C286.3,158.7,286.2,157.7,286.7,156.9
		C286.7,156.9,286.7,156.9,286.7,156.9z"/>
	<path class="st16" d="M307.4,156.9c0.6-0.7,1.6-0.8,2.3-0.2c1.7,1.4,3.8,2.3,6,2.4c1.4,0,2.8-0.4,3.9-1.2c0.8-0.5,1.3-1.3,1.4-2.3
		c0-0.4-0.1-0.7-0.3-1c-0.2-0.4-0.6-0.7-1-0.9c-1.3-0.8-2.8-1.3-4.3-1.5h-0.1c-1.4-0.2-2.8-0.6-4.1-1.2c-1.2-0.5-2.2-1.4-2.9-2.5
		c-0.5-0.8-0.7-1.7-0.7-2.6c0.1-1.8,1-3.5,2.5-4.6c1.6-1.1,3.5-1.7,5.4-1.6c2.5,0.1,4.9,1,6.9,2.5c0.7,0.5,0.9,1.5,0.4,2.2
		c-0.5,0.7-1.4,1-2.2,0.5c0,0,0,0-0.1,0c-1.6-1.1-3.1-2-5.1-2c-1.2,0-2.5,0.3-3.5,1c-0.7,0.4-1.2,1.2-1.2,2c0,0.3,0.1,0.6,0.2,0.9
		c0.2,0.3,0.5,0.6,0.9,0.8c1.2,0.7,2.5,1.2,3.9,1.4h0.1c1.5,0.3,3,0.7,4.3,1.3c1.3,0.6,2.4,1.5,3.1,2.6c0.5,0.8,0.8,1.7,0.8,2.7
		c-0.1,2-1.1,3.8-2.7,4.9c-1.7,1.2-3.7,1.8-5.8,1.8c-3-0.1-5.8-1.2-8-3.1C307,158.7,306.9,157.6,307.4,156.9z"/>
	<rect x="165.2" y="15.9" class="st22" width="93.6" height="59.7"/>
	<path class="st16" d="M259.5,76.2h-94.8V15.3h94.8V76.2z M165.8,75h92.5V16.4h-92.5V75z"/>
	<rect x="165.2" y="15.9" class="st29" width="93.6" height="11.3"/>
	<path class="st16" d="M259.5,27.7h-94.8V15.3h94.8V27.7z M165.8,26.5h92.5V16.4h-92.5V26.5z"/>
	<path class="st19" d="M175.8,21.6c0,1.6-1.3,2.8-2.8,2.8c-1.6,0-2.8-1.3-2.8-2.8c0-1.6,1.3-2.8,2.8-2.8l0,0
		C174.6,18.7,175.8,20,175.8,21.6z"/>
	<path class="st16" d="M187.4,21.6c0,1.6-1.3,2.8-2.8,2.8c-1.6,0-2.8-1.3-2.8-2.8c0-1.6,1.3-2.8,2.8-2.8l0,0
		C186.2,18.7,187.4,20,187.4,21.6z"/>
	<path class="st22" d="M199.1,21.6c0,1.6-1.3,2.9-2.8,2.9c-1.6,0-2.9-1.3-2.9-2.8c0-1.6,1.3-2.9,2.8-2.9c0,0,0,0,0,0
		C197.8,18.7,199.1,20,199.1,21.6z"/>
	<path class="st16" d="M182.7,49.5c0.1-6.3,5.3-11.3,11.6-11.3c2.6,0,5.2,0.8,7.3,2.4c0.8,0.7,0.8,1.8,0.2,2.6
		c-0.6,0.7-1.6,0.8-2.4,0.3c-1.4-1.2-3.2-1.8-5.1-1.7c-2.1,0-4.1,0.8-5.7,2.3c-1.5,1.4-2.3,3.4-2.3,5.5c0,2.1,0.8,4,2.3,5.5
		c1.5,1.4,3.6,2.2,5.7,2.3c1.9,0,3.7-0.6,5.1-1.7c0.8-0.5,1.9-0.4,2.5,0.4c0.6,0.8,0.4,1.9-0.3,2.5c-2.1,1.6-4.6,2.5-7.3,2.4
		C188,60.9,182.8,55.8,182.7,49.5z"/>
	<path class="st16" d="M212.9,51.5h-4.5c-1,0-1.7-0.8-1.7-1.7c0,0,0,0,0,0c0-1,0.8-1.7,1.7-1.7h4.5v-4.4c0.1-1,0.9-1.7,1.9-1.7
		c0.9,0.1,1.6,0.8,1.7,1.7V48h4.5c1,0,1.7,0.8,1.7,1.7c0,1-0.8,1.7-1.7,1.7c0,0,0,0,0,0h-4.4v4.4c-0.1,1-0.9,1.7-1.9,1.7
		c-0.9-0.1-1.6-0.8-1.7-1.7L212.9,51.5z"/>
	<path class="st16" d="M232.4,51.5h-4.5c-1-0.1-1.7-0.9-1.6-1.9c0.1-0.9,0.7-1.5,1.6-1.6h4.5v-4.4c0-1,0.8-1.8,1.7-1.8
		c0,0,0,0,0.1,0c1,0,1.8,0.8,1.8,1.8c0,0,0,0,0,0V48h4.5c1,0,1.7,0.8,1.7,1.7c0,1-0.8,1.7-1.7,1.7c0,0,0,0,0,0H236v4.4
		c0,1-0.8,1.8-1.8,1.8c0,0,0,0,0,0c-1,0-1.8-0.8-1.8-1.7c0,0,0,0,0-0.1L232.4,51.5z"/>
	<rect x="198.6" y="88" class="st19" width="63.8" height="23.6"/>
	<path class="st22" d="M207.8,104.7V94.3c0-0.6,0.4-1,1-1c0.6,0,1,0.4,1,1v4.3h4.6v-4.3c0-0.6,0.4-1,1-1c0.6,0,1,0.4,1,1v10.5
		c0,0.6-0.4,1-1,1c-0.6,0-1-0.4-1-1v-4.3h-4.6v4.3c0,0.6-0.4,1-1,1C208.2,105.7,207.8,105.3,207.8,104.7z"/>
	<path class="st22" d="M228,95.2h-2.8v9.5c0,0.6-0.4,1-1,1c-0.6,0-1-0.4-1-1v-9.5h-2.8c-0.6,0-1-0.4-1-1s0.4-1,1-1h7.6
		c0.6,0,1,0.4,1,1v0C228.9,94.8,228.5,95.2,228,95.2z"/>
	<path class="st22" d="M242.6,94.3v10.5c0,0.6-0.4,1-1,1s-1-0.4-1-1v-7.5l-2.6,3.6c-0.2,0.3-0.5,0.4-0.8,0.4l0,0
		c-0.3,0-0.6-0.1-0.8-0.4l-2.5-3.6v7.5c0,0.6-0.4,1-1,1s-1-0.4-1-1V94.3c0-0.6,0.4-1,1-1l0,0c0.3,0,0.6,0.2,0.8,0.4l3.5,4.9l3.6-4.9
		c0.2-0.3,0.5-0.4,0.8-0.4l0,0C242.1,93.3,242.5,93.7,242.6,94.3z"/>
	<path class="st22" d="M246.9,104.7V94.3c0-0.6,0.4-1,1-1s1,0.4,1,1v9.5h4.8c0.6,0,1,0.4,1,1s-0.4,1-1,1h-5.8
		C247.3,105.7,246.9,105.3,246.9,104.7z"/>
	<rect x="325.8" y="168.4" class="st19" width="35.6" height="23.6"/>
	<path class="st22" d="M335.4,182.5c0.4,1.2,1.8,1.9,3,1.5c1-0.3,1.6-1.2,1.6-2.2v-6.9c0.2-0.5,0.7-0.8,1.3-0.7
		c0.3,0.1,0.6,0.3,0.7,0.7v6.8c0,2.4-1.9,4.3-4.3,4.3c-1.9,0-3.5-1.2-4.1-3c-0.2-0.5,0.1-1,0.6-1.2c0,0,0,0,0,0
		C334.7,181.7,335.2,182,335.4,182.5C335.4,182.5,335.4,182.5,335.4,182.5z"/>
	<path class="st22" d="M344.4,183.1c0.3-0.4,0.9-0.4,1.2-0.1c0.9,0.8,2.1,1.2,3.3,1.3c0.8,0,1.5-0.2,2.1-0.6
		c0.4-0.3,0.7-0.7,0.7-1.2c0-0.2,0-0.4-0.1-0.6c-0.1-0.2-0.3-0.4-0.5-0.5c-0.7-0.4-1.5-0.7-2.4-0.8l0,0c-0.8-0.1-1.5-0.4-2.2-0.7
		c-0.7-0.3-1.2-0.7-1.6-1.3c-0.3-0.4-0.4-0.9-0.4-1.4c0-1,0.5-1.9,1.4-2.5c0.9-0.6,1.9-0.9,3-0.9c1.4,0.1,2.7,0.6,3.8,1.4
		c0.4,0.3,0.5,0.8,0.3,1.2c0,0,0,0,0,0c-0.3,0.4-0.8,0.5-1.2,0.3c0,0,0,0,0,0c-0.8-0.6-1.8-1-2.8-1.1c-0.7,0-1.4,0.2-1.9,0.6
		c-0.4,0.2-0.6,0.6-0.7,1.1c0,0.2,0,0.3,0.1,0.5c0.1,0.2,0.3,0.3,0.5,0.4c0.7,0.4,1.4,0.7,2.1,0.8l0,0c0.8,0.1,1.6,0.4,2.4,0.7
		c0.7,0.3,1.3,0.8,1.7,1.4c0.3,0.4,0.4,0.9,0.4,1.5c0,1.1-0.6,2.1-1.5,2.7c-0.9,0.7-2,1-3.2,1c-1.6-0.1-3.2-0.7-4.4-1.7
		C344.1,184,344,183.5,344.4,183.1z"/>
	<rect x="134.8" y="157.2" class="st30" width="74.6" height="23.6"/>
	<text transform="matrix(1 0 0 1 143.5282 175.0186)" class="st22 st31 st32">Python</text>
</g>
</svg>
