<?xml version="1.0" encoding="utf-8"?>
<!-- Generator: Adobe Illustrator 25.2.0, SVG Export Plug-In . SVG Version: 6.00 Build 0)  -->
<svg version="1.1" id="Layer_1" xmlns="http://www.w3.org/2000/svg" xmlns:xlink="http://www.w3.org/1999/xlink" x="0px" y="0px"
	 viewBox="0 0 431.5 112.4" style="enable-background:new 0 0 431.5 112.4;" xml:space="preserve">
<style type="text/css">
	.st0{fill:#23B5B5;}
</style>
<path d="M137.8,8.7v16.5h23.7V31h-23.7V50H131V2.8h33.3v5.9H137.8z M204,32.4c0,0.5,0,1.1-0.1,2h-29c0.4,3.1,1.8,5.7,4.1,7.6
	c2.4,1.9,5.3,2.8,8.8,2.8c4.3,0,7.7-1.4,10.3-4.3l3.6,4.2c-1.6,1.9-3.6,3.3-6.1,4.3c-2.4,1-5.1,1.5-8,1.5c-3.8,0-7.1-0.8-10-2.3
	c-2.9-1.6-5.2-3.8-6.8-6.5c-1.6-2.8-2.4-5.9-2.4-9.4c0-3.5,0.8-6.6,2.3-9.4c1.6-2.8,3.7-4.9,6.4-6.5c2.7-1.6,5.8-2.4,9.2-2.4
	c3.4,0,6.4,0.8,9.1,2.4c2.7,1.5,4.8,3.7,6.3,6.5C203.3,25.6,204,28.8,204,32.4z M186.4,19.4c-3.1,0-5.7,0.9-7.8,2.8
	c-2.1,1.9-3.3,4.4-3.6,7.4h22.9c-0.4-3-1.6-5.5-3.7-7.4C192.1,20.4,189.5,19.4,186.4,19.4z M225,14c4.9,0,8.7,1.2,11.3,3.6
	c2.7,2.4,4,6,4,10.9V50h-6.1v-4.7c-1.1,1.7-2.6,2.9-4.7,3.8c-2,0.9-4.3,1.3-7.1,1.3c-4,0-7.2-1-9.6-2.9c-2.4-1.9-3.6-4.5-3.6-7.6
	c0-3.1,1.1-5.7,3.4-7.6c2.3-1.9,5.9-2.9,10.9-2.9h10.2v-1.3c0-2.8-0.8-4.9-2.4-6.4c-1.6-1.5-4-2.2-7.1-2.2c-2.1,0-4.2,0.4-6.2,1.1
	c-2,0.7-3.7,1.6-5.1,2.8l-2.7-4.9c1.8-1.5,4-2.6,6.6-3.4C219.4,14.4,222.2,14,225,14z M223.6,45.5c2.5,0,4.6-0.5,6.4-1.6
	c1.8-1.1,3.1-2.7,3.9-4.7v-5h-10c-5.5,0-8.2,1.8-8.2,5.5c0,1.8,0.7,3.2,2.1,4.3C219.2,44.9,221.1,45.5,223.6,45.5z M258.5,20.3
	c1.1-2.1,2.8-3.6,5-4.7c2.2-1.1,4.9-1.6,8-1.6v6.3c-0.4,0-0.9-0.1-1.5-0.1c-3.5,0-6.3,1.1-8.3,3.2c-2,2.1-3,5-3,8.9V50h-6.5V14.3
	h6.2V20.3z M279.5,0h6.5v50h-6.5V0z M330.6,32.4c0,0.5,0,1.1-0.1,2h-29c0.4,3.1,1.8,5.7,4.1,7.6c2.4,1.9,5.3,2.8,8.8,2.8
	c4.3,0,7.7-1.4,10.3-4.3l3.6,4.2c-1.6,1.9-3.6,3.3-6.1,4.3c-2.4,1-5.1,1.5-8,1.5c-3.8,0-7.1-0.8-10-2.3c-2.9-1.6-5.2-3.8-6.8-6.5
	c-1.6-2.8-2.4-5.9-2.4-9.4c0-3.5,0.8-6.6,2.3-9.4c1.6-2.8,3.7-4.9,6.4-6.5c2.7-1.6,5.8-2.4,9.2-2.4c3.4,0,6.4,0.8,9.1,2.4
	c2.7,1.5,4.8,3.7,6.3,6.5C329.9,25.6,330.6,28.8,330.6,32.4z M313,19.4c-3.1,0-5.7,0.9-7.8,2.8c-2.1,1.9-3.3,4.4-3.6,7.4h22.9
	c-0.4-3-1.6-5.5-3.7-7.4C318.6,20.4,316.1,19.4,313,19.4z M349.9,50.5c-2.9,0-5.7-0.4-8.4-1.1c-2.7-0.8-4.8-1.8-6.3-3l2.7-5.1
	c1.6,1.1,3.5,2,5.7,2.7c2.2,0.7,4.5,1,6.8,1c5.7,0,8.5-1.6,8.5-4.9c0-1.1-0.4-1.9-1.1-2.6c-0.8-0.6-1.7-1.1-2.9-1.3
	c-1.1-0.3-2.7-0.7-4.9-1c-2.9-0.5-5.2-1-7.1-1.6c-1.8-0.6-3.3-1.6-4.7-3c-1.3-1.4-2-3.3-2-5.9c0-3.2,1.3-5.8,4-7.8
	c2.7-2,6.3-3,10.9-3c2.4,0,4.8,0.3,7.1,0.9c2.4,0.6,4.3,1.4,5.9,2.4l-2.8,5.1c-2.9-1.9-6.4-2.8-10.3-2.8c-2.7,0-4.8,0.4-6.3,1.3
	c-1.4,0.9-2.2,2.1-2.2,3.6c0,1.2,0.4,2.1,1.2,2.8c0.8,0.7,1.8,1.2,3,1.5c1.2,0.3,2.9,0.7,5.1,1.1c2.9,0.5,5.2,1,6.9,1.6
	c1.8,0.5,3.3,1.5,4.6,2.8c1.3,1.3,1.9,3.2,1.9,5.7c0,3.2-1.4,5.8-4.2,7.8C358.4,49.5,354.6,50.5,349.9,50.5z M383.6,50.5
	c-2.9,0-5.7-0.4-8.4-1.1c-2.7-0.8-4.8-1.8-6.3-3l2.7-5.1c1.6,1.1,3.5,2,5.7,2.7c2.2,0.7,4.5,1,6.8,1c5.7,0,8.5-1.6,8.5-4.9
	c0-1.1-0.4-1.9-1.1-2.6c-0.8-0.6-1.7-1.1-2.9-1.3c-1.1-0.3-2.7-0.7-4.9-1c-2.9-0.5-5.2-1-7.1-1.6c-1.8-0.6-3.3-1.6-4.7-3
	c-1.3-1.4-2-3.3-2-5.9c0-3.2,1.3-5.8,4-7.8c2.7-2,6.3-3,10.9-3c2.4,0,4.8,0.3,7.1,0.9c2.4,0.6,4.3,1.4,5.9,2.4l-2.8,5.1
	c-2.9-1.9-6.4-2.8-10.3-2.8c-2.7,0-4.8,0.4-6.3,1.3c-1.4,0.9-2.2,2.1-2.2,3.6c0,1.2,0.4,2.1,1.2,2.8c0.8,0.7,1.8,1.2,3,1.5
	c1.2,0.3,2.9,0.7,5.1,1.1c2.9,0.5,5.2,1,6.9,1.6c1.8,0.5,3.3,1.5,4.6,2.8c1.3,1.3,1.9,3.2,1.9,5.7c0,3.2-1.4,5.8-4.2,7.8
	C392.1,49.5,388.4,50.5,383.6,50.5z M130.1,76.8h6.5v35.7h-6.5V76.8z M133.3,69.9c-1.3,0-2.3-0.4-3.2-1.2c-0.8-0.8-1.2-1.8-1.2-3
	c0-1.2,0.4-2.2,1.2-3c0.9-0.9,1.9-1.3,3.2-1.3c1.3,0,2.3,0.4,3.1,1.2c0.9,0.8,1.3,1.7,1.3,2.9c0,1.2-0.4,2.2-1.3,3.1
	C135.6,69.5,134.6,69.9,133.3,69.9z M168,76.5c4.5,0,8.1,1.3,10.8,4c2.7,2.6,4,6.5,4,11.5v20.6h-6.5V92.7c0-3.5-0.8-6.1-2.5-7.8
	c-1.7-1.8-4-2.6-7.1-2.6c-3.5,0-6.3,1-8.3,3.1c-2,2-3,4.9-3,8.8v18.4h-6.5V76.8h6.2v5.4c1.3-1.8,3.1-3.3,5.3-4.2
	C162.6,77,165.1,76.5,168,76.5z M214.9,110.5c-0.9,0.8-2.1,1.4-3.5,1.9c-1.4,0.4-2.8,0.6-4.3,0.6c-3.6,0-6.4-1-8.4-2.9
	c-2-1.9-3-4.7-3-8.3V82.2h-6.1v-5.3h6.1V69h6.5v7.8h10.2v5.3h-10.2v19.4c0,1.9,0.5,3.4,1.4,4.5c1,1,2.4,1.6,4.2,1.6
	c2,0,3.7-0.6,5.1-1.7L214.9,110.5z M236.8,113c-3.6,0-6.7-0.8-9.6-2.4c-2.8-1.6-5.1-3.7-6.7-6.5c-1.6-2.8-2.4-5.9-2.4-9.4
	c0-3.5,0.8-6.6,2.4-9.4c1.6-2.8,3.8-4.9,6.7-6.5c2.8-1.6,6-2.4,9.6-2.4s6.7,0.8,9.5,2.4c2.8,1.5,5,3.7,6.6,6.5
	c1.6,2.7,2.4,5.9,2.4,9.4c0,3.5-0.8,6.7-2.4,9.4c-1.6,2.7-3.8,4.9-6.6,6.5C243.5,112.2,240.4,113,236.8,113z M236.8,107.3
	c2.3,0,4.3-0.5,6.1-1.6c1.8-1.1,3.3-2.6,4.3-4.5c1-1.9,1.6-4.1,1.6-6.6c0-2.5-0.5-4.7-1.6-6.5c-1-1.9-2.5-3.4-4.3-4.5
	c-1.8-1-3.8-1.6-6.1-1.6c-2.3,0-4.4,0.5-6.2,1.6c-1.8,1-3.2,2.5-4.3,4.5c-1,1.9-1.6,4.1-1.6,6.5c0,2.5,0.5,4.7,1.6,6.6
	c1.1,1.9,2.5,3.4,4.3,4.5C232.5,106.8,234.5,107.3,236.8,107.3z M292.7,71.2h-16.2v-5.9h39v5.9h-16.2v41.3h-6.7V71.2z M350.6,94.9
	c0,0.5,0,1.1-0.1,2h-29c0.4,3.1,1.8,5.7,4.1,7.6c2.4,1.9,5.3,2.8,8.8,2.8c4.3,0,7.7-1.4,10.3-4.3l3.6,4.2c-1.6,1.9-3.6,3.3-6.1,4.3
	c-2.4,1-5.1,1.5-8,1.5c-3.8,0-7.1-0.8-10-2.3c-2.9-1.6-5.2-3.8-6.8-6.5c-1.6-2.8-2.4-5.9-2.4-9.4c0-3.5,0.8-6.6,2.3-9.4
	c1.6-2.8,3.7-4.9,6.4-6.5c2.7-1.6,5.8-2.4,9.2-2.4c3.4,0,6.4,0.8,9.1,2.4c2.7,1.5,4.8,3.7,6.3,6.5C349.8,88.1,350.6,91.3,350.6,94.9
	z M332.9,82c-3.1,0-5.7,0.9-7.8,2.8c-2.1,1.9-3.3,4.4-3.6,7.4h22.9c-0.4-3-1.6-5.5-3.7-7.4C338.6,82.9,336,82,332.9,82z M375.1,113
	c-3.6,0-6.9-0.8-9.8-2.4c-2.8-1.6-5.1-3.7-6.7-6.5c-1.6-2.8-2.4-5.9-2.4-9.4c0-3.5,0.8-6.6,2.4-9.4c1.6-2.8,3.8-4.9,6.7-6.5
	c2.9-1.6,6.1-2.4,9.8-2.4c3.2,0,6.1,0.7,8.6,2c2.6,1.3,4.5,3.2,5.9,5.7l-4.9,3.2c-1.1-1.7-2.5-3-4.2-3.8c-1.7-0.9-3.5-1.3-5.5-1.3
	c-2.3,0-4.4,0.5-6.3,1.6c-1.8,1-3.3,2.5-4.4,4.5c-1,1.9-1.6,4.1-1.6,6.5c0,2.5,0.5,4.7,1.6,6.7c1.1,1.9,2.5,3.3,4.4,4.4
	c1.9,1,4,1.6,6.3,1.6c2,0,3.9-0.4,5.5-1.3c1.7-0.9,3.1-2.1,4.2-3.8l4.9,3.1c-1.4,2.5-3.4,4.4-5.9,5.7
	C381.2,112.3,378.4,113,375.1,113z M416.7,76.5c4.5,0,8.1,1.3,10.8,4c2.7,2.6,4,6.5,4,11.5v20.6H425V92.7c0-3.5-0.8-6.1-2.5-7.8
	c-1.7-1.8-4-2.6-7.1-2.6c-3.5,0-6.3,1-8.3,3.1c-2,2-3,4.9-3,8.8v18.4h-6.5v-50h6.5v19.4c1.3-1.7,3.1-3,5.3-4
	C411.5,77,414,76.5,416.7,76.5z"/>
<path class="st0" d="M106.9,21.1L16.5,56.7l90.4,35.7v15.2L0,64.8V48.6l106.9-43V21.1z"/>
</svg>
