<?xml version="1.0" encoding="iso-8859-1"?>
<!-- Generator: Adobe Illustrator 19.0.0, SVG Export Plug-In . SVG Version: 6.00 Build 0)  -->
<svg version="1.1" id="Capa_1" xmlns="http://www.w3.org/2000/svg" xmlns:xlink="http://www.w3.org/1999/xlink" x="0px" y="0px"
	 viewBox="0 0 512 512" style="enable-background:new 0 0 512 512;" xml:space="preserve">
<g>
	<g>
		<path d="M171.961,222.182c-47.32-0.063-46.915-0.046-73.736,0c-4.153,0-7.524,3.371-7.524,7.524c0,4.153,3.371,7.524,7.524,7.524
			c48.685,0,21.482,0,73.736,0c4.153,0,7.524-3.371,7.524-7.524C179.485,225.552,176.114,222.182,171.961,222.182z"/>
	</g>
</g>
<g>
	<g>
		<path d="M171.957,196.601H98.225c-4.156,0-7.524,3.369-7.524,7.524c0,4.155,3.369,7.524,7.524,7.524h73.732
			c4.156,0,7.524-3.369,7.524-7.524C179.481,199.97,176.113,196.601,171.957,196.601z"/>
	</g>
</g>
<g>
	<g>
		<path d="M307.365,391.123h-31.601c-10.644,0-19.312-8.668-19.312-19.312v-6.019c0-8.387,5.598-15.971,13.624-18.459
			c3.973-1.224,6.19-5.437,4.966-9.41c-1.224-3.963-5.437-6.19-9.41-4.966c-14.486,4.484-24.228,17.677-24.228,32.835v6.019
			c0,18.941,15.409,34.36,34.36,34.36h31.601c25.03,0,45.395,20.365,45.395,45.395c0,25.03-20.365,45.385-45.395,45.385H174.94
			c-25.03,0-45.385-20.355-45.385-45.385V272.011h11.035v66.674c0,4.153,3.361,7.524,7.524,7.524c4.153,0,7.524-3.371,7.524-7.524
			v-66.694c44.442-0.883,80.327-37.31,80.327-81.963v-41.774c8.126-3.421,13.844-11.457,13.844-20.817v-37.45
			c0-12.45-10.132-22.572-22.572-22.572h-20.636v-46.88C206.602,9.21,197.382,0,186.066,0h-1.083
			c-11.326,0-20.536,9.21-20.536,20.536v46.88h-56.33v-46.88C108.116,9.21,98.897,0,87.581,0h-1.083
			C75.171,0,65.961,9.21,65.961,20.536v46.88H45.325c-12.45,0-22.572,10.122-22.572,22.572v37.45c0,9.36,5.718,17.396,13.844,20.817
			v41.774c0,43.84,34.581,79.755,77.91,81.882v179.655c0,33.327,27.107,60.434,60.434,60.434h132.424
			c33.327,0,60.444-27.107,60.444-60.434C367.808,418.24,340.691,391.123,307.365,391.123z M179.495,20.536
			c0-3.03,2.458-5.488,5.488-5.488h1.083c3.02,0,5.488,2.458,5.488,5.488v46.88h-12.059V20.536z M81.009,20.536
			c0-3.03,2.458-5.488,5.488-5.488h1.083c3.02,0,5.488,2.458,5.488,5.488v46.88H81.009V20.536z M37.801,127.438v-6.17v-31.28
			c0-4.153,3.371-7.524,7.524-7.524c25.496,0,156.328,0,181.913,0c4.143,0,7.524,3.371,7.524,7.524c0,14.075,0,23.97,0,37.45
			c0,4.153-3.381,7.524-7.524,7.524h-6.32c-4.338,0-163.709,0-175.592,0C41.172,134.962,37.801,131.591,37.801,127.438z
			 M51.645,190.029V150.01h169.272v40.018c0,36.874-29.993,66.934-66.934,66.934c-0.104,0-36.632,0.06-39.476-0.13
			C79.485,254.736,51.645,225.573,51.645,190.029z"/>
	</g>
</g>
<g>
	<g>
		<path d="M481.723,92.155h-6.39V45.004c0-4.153-3.371-7.524-7.524-7.524h-15.55c-4.153,0-7.524,3.371-7.524,7.524
			c0,4.163,3.371,7.524,7.524,7.524h8.026v39.627h-46.148V52.528h8.026c4.153,0,7.524-3.361,7.524-7.524
			c0-4.153-3.371-7.524-7.524-7.524h-15.55c-4.153,0-7.524,3.371-7.524,7.524v47.151h-6.401c-4.153,0-7.524,3.371-7.524,7.524
			v57.815c0,21.509,13.132,40.018,31.792,47.934v80.608c0,10.654-8.658,19.312-19.312,19.312h-121.88
			c-33.327,0-60.444,27.117-60.444,60.444v6.019c0,33.327,27.117,60.444,60.444,60.444h31.601c10.644,0,19.312,8.658,19.312,19.312
			c0,10.644-8.668,19.302-19.312,19.302H174.94c-10.644,0-19.302-8.658-19.302-19.302v-82.785c0-4.153-3.371-7.524-7.524-7.524
			c-4.163,0-7.524,3.371-7.524,7.524v82.785c0,18.941,15.409,34.35,34.35,34.35h132.424c18.941,0,34.36-15.409,34.36-34.35
			c0-18.951-15.419-34.36-34.36-34.36h-31.601c-25.03,0-45.395-20.365-45.395-45.395v-6.019c0-25.03,20.365-45.395,45.395-45.395
			h121.88c18.951,0,34.36-15.409,34.36-34.36V209.27c3.781,0.376,7.478,0.339,11.035-0.07v76.836
			c0,25.03-20.365,45.395-45.395,45.395h-99.82c-4.153,0-7.524,3.371-7.524,7.524s3.371,7.524,7.524,7.524h99.82
			c33.327,0,60.444-27.107,60.444-60.444v-80.879c18.329-8.056,31.16-26.395,31.16-47.663V99.679
			C489.247,95.526,485.886,92.155,481.723,92.155z M474.199,157.494c0,22.775-20.404,39.841-42.195,36.617
			c-17.917-2.518-31.792-17.998-31.792-36.617c0-16.178,0-34.568,0-50.291c22.12,0,51.807,0,73.987,0
			C474.199,131.158,474.199,142.221,474.199,157.494z"/>
	</g>
</g>
<g>
</g>
<g>
</g>
<g>
</g>
<g>
</g>
<g>
</g>
<g>
</g>
<g>
</g>
<g>
</g>
<g>
</g>
<g>
</g>
<g>
</g>
<g>
</g>
<g>
</g>
<g>
</g>
<g>
</g>
</svg>
