<?xml version="1.0" encoding="iso-8859-1"?>
<!-- Generator: Adobe Illustrator 19.0.0, SVG Export Plug-In . SVG Version: 6.00 Build 0)  -->
<svg version="1.1" id="Capa_1" xmlns="http://www.w3.org/2000/svg" xmlns:xlink="http://www.w3.org/1999/xlink" x="0px" y="0px"
	 viewBox="0 0 512 512" style="enable-background:new 0 0 512 512;" xml:space="preserve">
<g>
	<g>
		<path d="M328.07,209.373H183.93c-9.484,0-17.193,7.719-17.193,17.193v23.218c0,9.484,7.709,17.193,17.193,17.193h144.14
			c9.484,0,17.193-7.709,17.193-17.193v-23.218C345.263,217.093,337.554,209.373,328.07,209.373z M190.917,251.94h-6.987
			c-1.173,0-2.155-0.982-2.155-2.155v-23.218c0-1.163,0.982-2.155,2.155-2.155h6.987V251.94z M227.679,250.977h-21.724v-26.566
			h21.724V250.977z M265.414,251.94h-22.697v-27.529h22.697V251.94z M302.175,250.977h-21.724v-26.566h21.724V250.977z
			 M330.226,249.784c0,1.173-0.982,2.155-2.155,2.155h-10.857v-27.529h10.857c1.173,0,2.155,0.992,2.155,2.155V249.784z"/>
	</g>
</g>
<g>
	<g>
		<path d="M334.392,152.889c-0.695-4.094-4.577-6.852-8.671-6.155c-4.094,0.695-6.85,4.577-6.155,8.671
			c0.22,1.292,0.331,2.618,0.331,3.939c0,12.845-10.451,23.296-23.296,23.296c-12.845,0-23.296-10.451-23.296-23.296
			c0-12.845,10.451-23.296,23.296-23.296c3.359,0,6.596,0.696,9.62,2.07c3.781,1.715,8.238,0.044,9.956-3.736
			c1.717-3.78,0.044-8.238-3.737-9.956c-4.991-2.267-10.32-3.416-15.839-3.416c-21.138,0-38.334,17.196-38.334,38.334
			c0,21.138,17.196,38.334,38.334,38.334c21.138,0,38.334-17.196,38.334-38.334C334.934,157.182,334.752,155.01,334.392,152.889z"/>
	</g>
</g>
<g>
	<g>
		<circle cx="296.602" cy="159.338" r="9.023"/>
	</g>
</g>
<g>
	<g>
		<path d="M215.398,121.013c-21.133,0-38.336,17.193-38.336,38.336c0,21.133,17.203,38.326,38.336,38.326
			s38.336-17.193,38.336-38.326C253.734,138.206,236.531,121.013,215.398,121.013z M215.398,182.637
			c-12.842,0-23.298-10.446-23.298-23.288c0-12.852,10.456-23.298,23.298-23.298s23.298,10.446,23.298,23.298
			C238.697,172.19,228.241,182.637,215.398,182.637z"/>
	</g>
</g>
<g>
	<g>
		<circle cx="215.398" cy="159.338" r="9.023"/>
	</g>
</g>
<g>
	<g>
		<path d="M444.431,366.486h-61.734c-16.19-19.398-40.541-31.749-67.719-31.749h-28.672c-0.219-1.372,1.424-10.604-6.175-18.817
			c8.193-8.173,6.663-17.911,6.847-18.949h39.321c19.794,0,35.899-16.103,35.899-35.899V120.474
			c0-19.794-16.103-35.899-35.899-35.899h-61.461l6.734-6.734c3.132-3.133,4.059-7.802,2.363-11.894
			c-1.542-3.721-4.953-6.245-8.89-6.672l17.291-17.291c2.326,0.872,4.832,1.353,7.458,1.353c11.719,0,21.253-9.534,21.253-21.263
			c0-11.719-9.534-21.253-21.253-21.253c-11.729,0-21.263,9.534-21.263,21.253c0,3.599,0.902,6.996,2.485,9.964l-23.58,23.58
			c-3.133,3.133-4.06,7.802-2.365,11.895c1.542,3.721,4.954,6.245,8.892,6.672l-10.392,10.391H185.7
			c-19.794,0-35.899,16.103-35.899,35.899v26.419c0,4.153,3.366,7.519,7.519,7.519c4.152,0,7.519-3.365,7.519-7.519v-26.419
			c0-11.503,9.357-20.861,20.861-20.861h140.597c11.503,0,20.861,9.358,20.861,20.861v140.598c0,11.503-9.358,20.861-20.861,20.861
			H185.701c-11.503,0-20.861-9.358-20.861-20.861v-84.104c0-4.153-3.366-7.519-7.519-7.519c-4.152,0-7.519,3.365-7.519,7.519v84.104
			c0,19.794,16.103,35.899,35.899,35.899h39.321c0.176,1.061-1.285,10.161,6.175,18.248c-8.354,8.354-6.612,18.201-6.837,19.519
			h-27.338c-27.178,0-51.529,12.351-67.719,31.749H67.569c-6.607-9.965-17.915-16.541-30.737-16.541
			C16.521,349.945,0,366.476,0,386.787s16.521,36.842,36.832,36.842c12.822,0,24.13-6.576,30.737-16.541h42.667
			c-0.942,5.153-1.434,10.456-1.434,15.87c0,48.652,39.569,88.221,88.221,88.221h8.19c4.15,0,7.519-3.358,7.519-7.519
			c0-4.15-3.368-7.519-7.519-7.519h-8.19c-40.361,0-73.183-32.832-73.183-73.183c0-40.256,32.754-73.183,73.183-73.183h117.955
			c40.414,0,73.183,32.94,73.183,73.183c0,40.351-32.832,73.183-73.183,73.183h-79.689c-4.16,0-7.519,3.368-7.519,7.519
			c0,4.16,3.358,7.519,7.519,7.519h79.689c54.777,0,96.72-49.78,86.787-104.09h42.667C464.643,437.573,512,423.063,512,386.787
			C512,350.498,464.637,336.009,444.431,366.486z M289.794,15.86c3.429,0,6.216,2.787,6.216,6.216c0,3.439-2.787,6.226-6.216,6.226
			c-3.439,0-6.226-2.787-6.226-6.226C283.569,18.647,286.356,15.86,289.794,15.86z M49.514,404.511
			c-3.569,2.566-7.95,4.08-12.682,4.08c-12.02,0-21.794-9.784-21.794-21.805c0-17.787,20.206-27.987,34.476-17.724
			C61.648,377.75,61.685,395.797,49.514,404.511z M87.462,392.05H73.293c0.508-3.474,0.508-7.052,0-10.526h14.168V392.05z
			 M114.396,392.05h-11.897v-10.526h16.659C117.343,384.902,115.749,388.421,114.396,392.05z M271.268,334.105h-31.87v-2.426
			c0-4.531,3.679-8.221,8.211-8.221h15.439c4.531,0,8.221,3.689,8.221,8.221V334.105z M271.94,299.449
			c0,4.531-3.689,8.221-8.221,8.221h-15.439c-4.531,0-8.221-3.689-8.221-8.221v-2.426h31.88V299.449z M409.501,392.05h-11.897
			c-1.353-3.629-2.947-7.148-4.762-10.526h16.659V392.05z M438.707,392.05h-14.168v-10.526h14.168
			C438.198,384.997,438.198,388.575,438.707,392.05z M462.486,404.511c-5.837-4.178-9.123-10.826-9.123-17.724
			c0-12.04,9.799-21.805,21.805-21.805c12.02,0,21.794,9.784,21.794,21.805C496.962,404.574,476.757,414.774,462.486,404.511z"/>
	</g>
</g>
<g>
	<g>
		<circle cx="270.366" cy="472.922" r="9.356"/>
	</g>
</g>
<g>
	<g>
		<circle cx="303.95" cy="472.922" r="9.356"/>
	</g>
</g>
<g>
	<g>
		<circle cx="337.534" cy="472.922" r="9.356"/>
	</g>
</g>
<g>
</g>
<g>
</g>
<g>
</g>
<g>
</g>
<g>
</g>
<g>
</g>
<g>
</g>
<g>
</g>
<g>
</g>
<g>
</g>
<g>
</g>
<g>
</g>
<g>
</g>
<g>
</g>
<g>
</g>
</svg>
