<?xml version="1.0" encoding="iso-8859-1"?>
<!-- Generator: Adobe Illustrator 19.0.0, SVG Export Plug-In . SVG Version: 6.00 Build 0)  -->
<svg version="1.1" id="Capa_1" xmlns="http://www.w3.org/2000/svg" xmlns:xlink="http://www.w3.org/1999/xlink" x="0px" y="0px"
	 viewBox="0 0 512 512" style="enable-background:new 0 0 512 512;" xml:space="preserve">
<g>
	<g>
		<path d="M499.079,373.303V89.157c0-15.916-12.951-28.867-28.867-28.867H144.208c-4.157,0-7.512,3.365-7.512,7.512
			c0,4.157,3.355,7.512,7.512,7.512h326.004c7.633,0,13.843,6.21,13.843,13.843v273.698c-11.104-4.812-20.041-3.622-22.286-3.806
			V134.471c0-17.479-13.051-32.373-30.36-34.647c-4.127-0.531-7.893,2.364-8.434,6.471c-0.541,4.117,2.364,7.893,6.471,8.434
			c9.856,1.292,17.298,9.776,17.298,19.742v224.578H65.258V134.471c0-10.978,8.935-19.913,19.923-19.913h315.207
			c4.147,0,7.512-3.366,7.512-7.512c0-4.157-3.365-7.512-7.512-7.512H85.181c-19.272,0-34.947,15.666-34.947,34.937v224.578h-3.906
			c-6.531,0-12.741,1.362-18.38,3.806V89.157c0-7.633,6.21-13.843,13.843-13.843h72.369c4.147,0,7.512-3.355,7.512-7.512
			c0-4.147-3.366-7.512-7.512-7.512H41.79c-15.916,0-28.867,12.951-28.867,28.867v284.146
			c-28.019,29.212-7.559,78.408,33.405,78.408h79.25c4.147,0,7.512-3.365,7.512-7.512c0-4.157-3.366-7.512-7.512-7.512h-79.25
			c-30.404,0-42.762-38.88-18.38-56.643c10.717-7.788,21.079-5.624,24.019-5.97h16.657c33.207,0,380.469,0,397.051,0
			c6.861,0,13.212,2.214,18.38,5.97c24.378,17.761,12.027,56.643-18.38,56.643H155.626c-4.157,0-7.512,3.355-7.512,7.512
			c0,4.147,3.355,7.512,7.512,7.512h310.048c25.542,0,46.326-20.784,46.326-46.336C512,392.946,507.072,381.636,499.079,373.303z"/>
	</g>
</g>
<g>
	<g>
		<circle cx="256" cy="87.364" r="9.161"/>
	</g>
</g>
<g>
	<g>
		<path d="M410.922,137.587c-11.875,0-22.027,7.51-25.963,18.03h-19.777c-2.611,0-5.059,1.273-6.559,3.41l-19.482,27.762
			c-39.744-72.683-147.05-62.462-172.986,15.347c-7.475,22.296-6.452,46.122,2.805,67.576l-23.964,34.149h-15.15
			c-3.551-11.212-14.052-19.364-26.425-19.364c-15.28,0-27.712,12.431-27.712,27.711c0,15.281,12.431,27.712,27.712,27.712
			c12.617,0,23.283-8.478,26.622-20.034h19.118c2.611,0,5.059-1.273,6.559-3.41l21.817-31.089
			c12.679,18.742,31.738,32.485,54.247,38.477c72.409,19.166,136.666-49.449,114.734-119.687l22.83-32.533h14.604v-0.001
			c2.877,12.232,13.874,21.368,26.971,21.368c15.281,0,27.712-12.431,27.712-27.711
			C438.634,150.019,426.203,137.587,410.922,137.587z M103.42,323.893c-6.444,0-11.686-5.242-11.686-11.686
			c0-6.444,5.242-11.685,11.686-11.685c6.445,0,11.686,5.242,11.686,11.685S109.863,323.893,103.42,323.893z M229.224,158.225
			c-5.553,5.9-10.371,12.451-14.388,19.503c-3.213-1.751-6.326-3.701-9.309-5.864C212.731,165.84,220.583,161.359,229.224,158.225z
			 M194.263,183.435c4.347,3.306,8.931,6.243,13.707,8.791c-3.882,10.102-6.286,20.893-7.067,32.014h-23.231
			C179.212,209.457,184.757,195.435,194.263,183.435z M185.176,266.657c-4.089-8.415-6.594-17.33-7.523-26.389h23.267
			c0.792,11.022,3.19,21.738,7.038,31.778c-4.82,2.571-9.443,5.537-13.826,8.88C190.68,276.535,187.663,271.768,185.176,266.657z
			 M205.422,292.558c-0.018-0.015-0.037-0.03-0.055-0.046c3.019-2.198,6.173-4.176,9.428-5.952
			c4.046,7.139,8.903,13.763,14.496,19.708C220.651,303.156,212.556,298.544,205.422,292.558z M247.988,301.925
			c-7.29-6.107-13.453-13.446-18.371-21.732c5.938-1.909,12.096-3.165,18.371-3.749V301.925z M247.988,260.367
			c-8.688,0.68-17.194,2.46-25.336,5.27c-3.005-8.033-4.93-16.576-5.665-25.37h31.001V260.367z M247.988,224.242h-31.012
			c0.725-8.89,2.661-17.508,5.702-25.605c8.133,2.806,16.629,4.583,25.309,5.263V224.242z M247.988,187.822
			c-6.256-0.582-12.395-1.831-18.315-3.73c4.908-8.217,11.083-15.54,18.315-21.583V187.822z M306.504,171.843
			c-2.992,2.171-6.115,4.127-9.339,5.884c-4.013-7.044-8.823-13.588-14.37-19.484C291.536,161.407,299.498,165.992,306.504,171.843z
			 M264.014,162.505c6.902,5.767,13.189,13.005,18.314,21.585c-5.92,1.899-12.059,3.149-18.314,3.731V162.505z M264.014,203.899
			c8.679-0.68,17.175-2.457,25.31-5.264c3.041,8.097,4.977,16.716,5.702,25.606h-31.012V203.899z M264.015,240.268h31
			c-0.736,8.793-2.661,17.336-5.665,25.369c-8.141-2.811-16.646-4.59-25.335-5.27V240.268z M264.014,301.928v-25.484
			c6.275,0.584,12.433,1.84,18.371,3.749C277.576,288.295,271.444,295.704,264.014,301.928z M282.672,306.31
			c5.609-5.955,10.48-12.594,14.536-19.749c3.257,1.777,6.414,3.756,9.434,5.956C301.206,297.349,291.997,302.95,282.672,306.31z
			 M317.882,280.934c-4.386-3.345-9.013-6.314-13.837-8.889c3.846-10.039,6.244-20.755,7.037-31.778h23.247
			C332.805,254.915,327.283,268.975,317.882,280.934z M311.097,224.241L311.097,224.241c-0.779-11.121-3.183-21.913-7.067-32.016
			c4.781-2.55,9.366-5.489,13.718-8.798c9.54,12.078,15.106,26.25,16.601,40.814H311.097z M410.922,176.985
			c-6.444,0-11.686-5.242-11.686-11.685c0-6.445,5.243-11.686,11.686-11.686s11.686,5.242,11.686,11.686
			C422.608,171.743,417.365,176.985,410.922,176.985z"/>
	</g>
</g>
<g>
</g>
<g>
</g>
<g>
</g>
<g>
</g>
<g>
</g>
<g>
</g>
<g>
</g>
<g>
</g>
<g>
</g>
<g>
</g>
<g>
</g>
<g>
</g>
<g>
</g>
<g>
</g>
<g>
</g>
</svg>
