<?xml version="1.0" encoding="iso-8859-1"?>
<!-- Generator: Adobe Illustrator 19.0.0, SVG Export Plug-In . SVG Version: 6.00 Build 0)  -->
<svg version="1.1" id="Capa_1" xmlns="http://www.w3.org/2000/svg" xmlns:xlink="http://www.w3.org/1999/xlink" x="0px" y="0px"
	 viewBox="0 0 512 512" style="enable-background:new 0 0 512 512;" xml:space="preserve">
<g>
	<g>
		<path d="M496.647,286.052c5.725-13.099,8.763-27.376,8.763-42.105V143.781c0-26.48-21.54-48.011-48.011-48.011h-14.327V80.377
			c0-13.26-10.785-24.036-24.036-24.036h-62.871c-13.25,0-24.036,10.775-24.036,24.036V95.77H179.869V80.377
			c0-13.26-10.785-24.036-24.036-24.036H92.963c-13.25,0-24.036,10.775-24.036,24.036V95.77H54.601
			c-26.47,0-48.011,21.53-48.011,48.011v100.166c0,14.951,3.119,29.187,8.763,42.085l-9.528,65.175
			c-0.644,4.397,2.405,8.481,6.801,9.125c4.397,0.644,8.481-2.405,9.125-6.801l6.64-45.415
			c19.307,25.142,49.661,41.381,83.747,41.381h45.103l-62.609,75.457c-29.006,31.386-80.215,8.559-78.485-33.09l1.237-8.461
			c0.644-4.397-2.405-8.491-6.801-9.135c-4.387-0.644-8.481,2.405-9.125,6.801C0.574,388.444,0,388.251,0,394.026
			c0,35.666,29.113,61.633,62.005,61.633c16.953,0,32.799-7.083,44.62-19.951c0.091-0.101,0.181-0.201,0.262-0.312l71.282-85.9
			h155.662c74.462,89.738,71.442,86.1,71.543,86.202C443.441,477.166,512,449.519,512,394.026
			C512,387.348,512.306,395.382,496.647,286.052z M356.167,72.439h62.871c4.376,0,7.938,3.562,7.938,7.938V95.77h-78.747V80.377h0
			C348.228,76,351.79,72.439,356.167,72.439z M85.025,80.377c0-4.376,3.562-7.938,7.938-7.938h62.871
			c4.377,0,7.938,3.562,7.938,7.938V95.77H85.025V80.377z M495.903,394.026c0,40.248-50.087,61.694-78.536,30.937l-62.609-75.467
			c37.309-1.188,55.02,3.422,81.886-6.65c4.165-1.559,6.268-6.198,4.708-10.363c-1.559-4.155-6.198-6.268-10.353-4.708
			c-23.434,8.773-38.526,4.5-80.357,5.624h-23.382c-3.08,0-214.796,0-215.122,0c-49.318,0-89.452-40.135-89.452-89.452v-8.059
			v-92.108c0-17.597,14.317-31.913,31.913-31.913c18.3,0,373.946,0,402.799,0c17.596,0,31.913,14.317,31.913,31.913
			c0,9.485,0,90.253,0,100.167c0,13.995-3.24,27.507-9.296,39.66c-5.845,11.721-14.307,22.184-25.001,30.625
			c-3.491,2.747-4.095,7.807-1.338,11.298c2.747,3.491,7.807,4.095,11.298,1.348c7.063-5.564,13.301-11.882,18.623-18.804
			C496.403,396.775,495.903,390.251,495.903,394.026z"/>
	</g>
</g>
<g>
	<g>
		<path d="M394.197,128.438c-14.639,0-26.561,11.912-26.561,26.561c0,14.639,11.922,26.561,26.561,26.561
			c14.649,0,26.561-11.922,26.561-26.561C420.758,140.35,408.845,128.438,394.197,128.438z M394.197,165.462
			c-5.765,0-10.463-4.698-10.463-10.463c0-5.775,4.698-10.463,10.463-10.463c5.775,0,10.463,4.688,10.463,10.463
			C404.66,160.764,399.972,165.462,394.197,165.462z"/>
	</g>
</g>
<g>
	<g>
		<path d="M432.197,170.331c-14.639,0-26.561,11.912-26.561,26.561c0,14.639,11.922,26.561,26.561,26.561
			c14.649,0,26.561-11.922,26.561-26.561C458.758,182.244,446.846,170.331,432.197,170.331z M432.197,207.356
			c-5.765,0-10.463-4.698-10.463-10.463c0-5.775,4.698-10.463,10.463-10.463c5.775,0,10.463,4.688,10.463,10.463
			C442.66,202.657,437.972,207.356,432.197,207.356z"/>
	</g>
</g>
<g>
	<g>
		<path d="M394.197,212.225c-14.639,0-26.561,11.912-26.561,26.561s11.922,26.561,26.561,26.561c3.35,0,6.56-0.624,9.518-1.771
			c10.1-3.883,17.043-13.648,17.043-24.79C420.758,224.137,408.845,212.225,394.197,212.225z M394.197,249.249
			c-5.765,0-10.463-4.698-10.463-10.463c0-5.765,4.698-10.463,10.463-10.463c5.775,0,10.463,4.698,10.463,10.463
			C404.66,244.551,399.972,249.249,394.197,249.249z"/>
	</g>
</g>
<g>
	<g>
		<path d="M356.207,170.331c-14.649,0-26.561,11.912-26.561,26.561c0,14.639,11.912,26.561,26.561,26.561
			c14.639,0,26.561-11.922,26.561-26.561C382.768,182.244,370.845,170.331,356.207,170.331z M356.207,207.356
			c-5.775,0-10.463-4.698-10.463-10.463c0-5.775,4.688-10.463,10.463-10.463c5.765,0,10.463,4.688,10.463,10.463
			C366.67,202.657,361.972,207.356,356.207,207.356z"/>
	</g>
</g>
<g>
	<g>
		<path d="M91.242,128.438c-20.957,0-38,17.043-38,38c0,20.957,17.043,38,38,38c20.957,0,38.01-17.043,38.01-38
			C129.253,145.481,112.199,128.438,91.242,128.438z M91.242,188.341c-12.073,0-21.903-9.819-21.903-21.903
			c0-12.083,9.83-21.903,21.903-21.903c12.083,0,21.913,9.819,21.913,21.903C113.155,178.521,103.326,188.341,91.242,188.341z"/>
	</g>
</g>
<g>
	<g>
		<path d="M298.179,219.913c-25.117,0-45.55,20.434-45.55,45.55c0,15.571,7.827,29.901,20.939,38.334
			c3.74,2.406,8.718,1.322,11.123-2.416c2.405-3.739,1.323-8.719-2.416-11.123c-8.483-5.456-13.548-14.725-13.548-24.795
			c0-16.24,13.213-29.452,29.452-29.452s29.452,13.212,29.452,29.452c0,13.712-9.301,25.497-22.618,28.659
			c-4.325,1.027-6.998,5.365-5.972,9.69c1.022,4.304,5.344,7.003,9.69,5.972c20.606-4.892,34.998-23.117,34.998-44.32
			C343.729,240.346,323.296,219.913,298.179,219.913z"/>
	</g>
</g>
<g>
	<g>
		<path d="M200.164,232.56h-1.07v-1.069c0-13.964-11.361-25.324-25.325-25.324h-5.759c-13.964,0-25.324,11.361-25.324,25.324v1.069
			h-1.069c-13.964,0-25.324,11.361-25.324,25.324c0.183,4.028-0.648,8.374,1.49,14.313l-0.01-0.009
			c2.925,8.097,9.728,14.032,17.687,16.027l-0.011-0.01c3.787,0.952,6.599,0.73,7.238,0.764c0.027,0.656-0.144,3.016,0.542,6.281
			l-0.002-0.002c2.508,11.764,12.887,20.114,24.784,20.114h5.759c13.965,0,25.325-11.361,25.325-25.324v-1.069h1.07
			c13.964,0,25.324-11.361,25.324-25.324v-5.759C225.488,243.921,214.128,232.56,200.164,232.56z M209.391,263.643
			c0,5.088-4.139,9.227-9.227,9.227h-9.118c-4.445,0-8.049,3.604-8.049,8.049v9.118c0,5.088-4.139,9.227-9.228,9.227h-5.759
			c-5.088,0-9.227-4.139-9.227-9.227v-9.118c0-4.445-3.604-8.049-8.049-8.049h-9.118c-5.088,0-9.227-4.139-9.227-9.227v-5.759
			c0-5.088,4.139-9.227,9.227-9.227h9.118c4.445,0,8.049-3.604,8.049-8.049v-9.118c0-5.088,4.139-9.227,9.227-9.227h5.759
			c5.089,0,9.228,4.139,9.228,9.227v9.118c0,4.445,3.604,8.049,8.049,8.049h9.118c5.088,0,9.227,4.139,9.227,9.227V263.643z"/>
	</g>
</g>
<g>
</g>
<g>
</g>
<g>
</g>
<g>
</g>
<g>
</g>
<g>
</g>
<g>
</g>
<g>
</g>
<g>
</g>
<g>
</g>
<g>
</g>
<g>
</g>
<g>
</g>
<g>
</g>
<g>
</g>
</svg>
